<?xml version="1.0" encoding="UTF-8" standalone="no"?>
<svg width="679.067" height="464.933" viewBox="0 0 509.3 348.7" xmlns="http://www.w3.org/2000/svg">
  <g fill="#76489d">
    <path d="M204.9 265s33.8 10.2 96.4.3zm110.9-108.2c.1 0 .3.1.4.1.1-1.7.2-3.5.1-5.2-.1-5.3-.8-10.6-2-15.8-1.2-5.1-2.9-10.1-5.2-14.7-1.2-2.4-2.7-4.7-4.3-6.8.4-.7.7-1.5.7-2.4.1-2.8-1.9-5.1-4.5-5.3-2.6-.2-4.9 2-5.1 4.7-.1 2.8 1.9 5.1 4.5 5.3.9.1 1.8-.2 2.5-.6a34.5 34.5 0 0 1 4.6 6.5c2.4 4.1 4.2 8.8 5.6 13.8 1.4 4.9 2.2 10.1 2.5 15.3.2 1.7.2 3.4.2 5.1m-69-95.7c-.9 2.3-3 3.6-4.8 2.8-1.7-.8-2.2-3.3-1.1-5.5s6.2-6 6.2-6 .6 6.4-.3 8.7m4.4-3c.1-1.3.1-2.7 0-4.1-.1-1.4-.1-2.8 0-4 .2-1.4.5-2.4 1.2-3.2-3.2.1-7.2 1.1-10.3 4.5-2.1 2.4-3.6 5.2-3.8 7.7-.3 2.3.5 4.1 2.1 5.4 1.6 1.3 3.4 1.7 5.1 1.2 2.2-.7 4.3-2.8 5.3-5.7.2-.6.3-1.2.4-1.8"/>
    <path d="M242.5 59.4c-.3.7-.4 1.4-.2 1.9.1.2.2.5.6.7.3.1.6.1.9 0 .5-.2 1-.8 1.3-1.4.3-.7.3-2.4.3-4-1.3 1-2.5 2.1-2.9 2.8m2.7-31.1c-1.1-.7-2.6-1.1-4.3-1.1h-.2c-1.9 0-4 .6-5.9 1.5-2.1 1-3.9 2.5-5.3 4.4-1.3 1.6-2.3 3.3-3.1 5.3-.6 1.5-1.1 3-1.5 4.7-.3 1.5-.5 3.1-.6 4.7-.1 2 0 3.7.3 5.6l1.1 6.1.3-6.2c.1-1.7.4-3.3 1.1-4.8.5-1.2 1.1-2.3 2-3.3.8-.9 1.6-1.8 2.6-2.7 1.1-.9 2.3-1.7 3.6-2.4 3.3-1.8 5.6-3.1 7.4-4.2 1.2-.8 2.1-1.4 2.7-2 .9-.9 1.4-1.7 1.5-2.6 0-1.3-.6-2.3-1.7-3M208.3 106c.9.6 2 .8 3.3.5 1.2-.2 2.5-.8 4-1.8 2.4-1.6 5.1-3.9 7.7-6.7 1.2-1.3 2.2-2.3 3.3-3.2 1.1-.9 2.1-1.5 3.2-1.9 1.2-.5 2.4-.8 3.7-.8 1.6-.1 3.2.3 4.8 1l8.1 3.5-7.1-5.3c-1.7-1.3-3.4-2.2-5.3-2.9-1.6-.6-3.3-1-5.1-1.1-1.8-.1-3.5-.1-5.3.2-2 .3-4.1.9-6.2 1.8-2.1.9-4.1 2.3-5.8 3.9-1.5 1.5-2.7 3.1-3.6 4.9-1.6 3.4-1.5 6.5.3 7.9m53.1-18.7c-.5-.8-.9-1.6-1.2-2.5-.1-.1-.1-.3-.2-.5-.3-.7-.4-1.5-.5-2.3-.1-.9-.1-1.8-.1-2.8.2-2.1.3-4.2.4-6 0-1 0-1.8-.1-2.4-.2-.9-.5-1.6-1.1-1.9-.7-.4-1.5-.3-2.4.2-.8.5-1.5 1.3-2 2.3-.6 1.1-1 2.5-1.2 3.9-.2 1.5 0 3.1.4 4.6.4 1.4.9 2.6 1.6 3.7.6 1 1.2 1.8 2 2.6.7.8 1.5 1.5 2.4 2.1 1.1.7 2.1 1.3 3.3 1.7l2.2.8c-1.3-.9-2.5-2-3.5-3.5m43.4 71.1c-.8.8-1.2 1.8-1.3 3-.1 1.9.7 3.4 2.3 4.1 1.9.8 4.3.4 5.8-1.1.7-.7 1.1-1.7 1.2-2.8v-.7h-.1c-.2-1.7-1.2-3.1-2.7-3.7-1.7-.6-3.9-.1-5.2 1.2m-3.9 5.1-.2-.1-.3-.2-.1.1c-1.5-.3-3 .1-4 1.2-1.1 1.2-1.6 2.9-1.3 4.6.3 1.5 1.3 2.7 2.8 3.3 1.6.6 3.2.3 4.3-.9 1.1-1.2 1.6-3.1 1.3-4.8-.4-1.4-1.2-2.5-2.5-3.2m19.9 3.1c-1-1.8-3-2.6-4.9-2.1-.8.2-1.4.6-1.9 1.1-1.2 1.3-1.4 3.5-.3 5.3.8 1.4 2.5 2.8 4.8 2.2h.1l.3-.1c.7-.3 1.2-.6 1.6-1.1 1.2-1.3 1.4-3.5.3-5.3m-15.4 16.3.3-.3c1.7-2.1 1-4.3-.5-5.7-1.7-1.5-4.5-2-6.4-.1h-.1l-.3.5c-1.5 2.3-.6 4.6.9 5.8 1.6 1.4 4.2 1.7 6.1-.2m11.6.9c1.6-1.7 1.9-4.1.7-6.1-.9-1.5-2.2-1.9-3-2-1.4-.1-2.9.5-4 1.6-1.6 1.7-2 3.9-1 5.8v.1l.2.3.1.1c.9 1.1 2 1.6 3.2 1.7 1.4.2 2.8-.4 3.8-1.5m-62.5 2.1c2.3 0 4.4-.9 5.9-2.6 1.5-1.6 2.4-3.7 2.3-6 0-2.2-.9-4.3-2.5-5.9-1.5-1.5-3.6-2.4-5.7-2.4-2.3 0-4.4.9-5.9 2.6-3.2 3.3-3.1 8.7.2 11.9 1.5 1.6 3.5 2.4 5.7 2.4m23.4 2.7c-.8-2.3-1.8-4.2-2.8-5.4-1.1-1.2-2.2-1.7-3.1-1.5-1.9.5-2.9 3.7-3.4 7.8-.5 4.2-.7 9.4-.6 14.9.1 2.8 0 5.2-.2 7.4s-.5 4.2-1 6.1c-.5 2-1.2 3.9-2.2 6-1.1 2-2.5 4.2-4.7 6.4 2.6-1.7 4.6-3.5 6.3-5.2 1.7-1.7 3.1-3.4 4.5-5.2 1.3-1.8 2.6-3.7 3.8-5.9a43.707 43.707 0 0 0 3.4-8c1-3.1 1.5-6.3 1.4-9.4-.2-2.8-.7-5.6-1.4-8M193.1 211c.1.4.7 1 .9 1.2 1 .7 3.3.8 4.4-.6.6-.7.6-1.5 1.7-3.5.9-1.6 1.9-3.5 2.9-4.8 1.1-1.3 2.6-3.1 4-3.8 1-.5 2.1-1.1 4-1.5 1.4-.4 1.5-.4 3.8-.7 1.8-.2 4 .1 5.8.6l2.5.4c-1.8-.8-5.8-2.3-7.7-2.7-1.6-.3-3.1-.5-4.7-.6-1.7-.1-3.2 0-4.8.1-1.9.2-3.6 1.2-5.5 1.8-2 .7-3.2 1.6-4.6 3.2-1.3 1.6-1.4 1.3-2.3 3 0-.1-1.5 4.2-.4 7.9m97.3 13c1-.5 2.2-1.1 3.8-1.5 1.5-.4 3.3-.5 4.9 0 1.6.5 2.9 1.5 3.7 2.6.8 1.1 1.1 2.1 1.2 2.8.1.7-.1 1.2-.4 1.4-.3.1-.8 0-1.3-.4s-1.1-.9-1.8-1.4c-.7-.5-1.5-.9-2.4-1.1-.9-.3-2-.4-3.3-.4-1.3 0-2.4.2-3.5.4-1 .2-2 .4-3 .7-1.9.6-3.8 1.3-6.5 2.6 2.5-1.6 4.2-2.8 5.9-4 .8-.6 1.6-1.1 2.7-1.7"/>
    <path d="M235.8 216.5c-.3-5.5-3.4-10.6-8.2-13.4-2.4-1.4-5.1-2.1-7.9-2.2-2.9-.1-5.8.6-8.2 2-2.5 1.5-4.6 3.7-5.8 6.3-1.3 2.6-1.7 5.6-1.3 8.4.5 2.9 2.2 5.6 4.6 7.3.7.5 1.5.9 2.3 1.3 2 .8 4.1 1.1 6.2.8 3.1-.5 6-2.5 7.5-5.3.8-1.4 1.2-3 1.2-4.6.1-1.7-.4-3.4-1.2-4.7-.9-1.4-2.2-2.6-3.8-3.3-1.5-.6-3.2-.8-4.8-.5-1.6.3-3.1 1.2-4.2 2.5 1.4.4 3-.2 4.4.3.8.3 1.5.7 2.1 1.2 1.2.2 2.3.9 2.9 1.9.9 1.4.9 3.6 0 5.4-.9 1.8-2.7 3.1-4.6 3.4-2 .4-4.3-.1-6-1.3-1.7-1.2-3-3-3.4-5.1-.4-2.2-.1-4.5.8-6.5.9-2.1 2.5-3.8 4.5-5 1.9-1.2 4.1-1.8 6.6-1.7 2.3 0 4.6.6 6.7 1.7 4.1 2.2 6.9 6.5 7.2 11.3.4 4.8-1.1 9.7-4.3 13.6-3.1 3.9-6.4 6-11.8 7.6l-1.9.9c5.4-.5 11.7-3 15.3-7.2 3.6-4.2 5.4-9.7 5.1-15.1m46.9 27.6c-2.7 1.2-5.6.4-6.5-1.7-.9-2.2.8-4.7 3.5-5.6 2.8-.9 10.4.3 10.4.3s-4.7 5.9-7.4 7m4-12.4c-3.8.2-7.5 1.4-9.7 3.2-2.1 1.7-2.9 3.9-2.5 6.4.4 2.5 1.6 4.4 3.6 5.4 2.5 1.4 6.1 1.3 9.4-.3.6-.3 1.2-.6 1.8-1.2 1.2-1 2.3-2.2 3.4-3.5 1.1-1.2 2.2-2.5 3.3-3.4 1.3-1 2.5-1.6 3.7-1.7-3.2-2.6-7.5-5.1-13-4.9"/>
    <path d="M278.2 240.3c-.1.3-.3.7-.1 1.2.2.5.6.7.9.8.8.3 1.8.3 2.7-.1 1-.4 2.7-2.1 4.1-3.6-2.1-.2-4.5-.3-5.5 0-1 .4-1.7 1-2.1 1.7m26.2-50.2c-2.9-.5-5.6 1.5-6 4.5-.3 1.7.3 3.3 1.3 4.5-2.4 4.7-5.8 9-9.5 12.9-4.2 4.4-7 7.8-12.1 12.4-5.1 4.6-9.9 8.2-14.7 11.1 0 .1 0 .2.1.3 6.1-3.3 11.8-7 15.9-10.8 4.6-4.2 8-6.9 12.5-11.2 4-3.8 7.7-8.2 10.5-13.1.1 0 .2.1.3.1 2.9.5 5.6-1.5 6-4.4.5-3.1-1.4-5.8-4.3-6.3M242.7 240c6.4-4 10.8-10.9 13.3-18.2 2.4-6.6 2.7-13.9 1.7-20.8.4-.2.8-.5 1.1-.8 2.1-2.1 2.2-5.5.1-7.6-2-2.1-5.4-2.2-7.5-.1-2.1 2.1-2.2 5.5-.1 7.6.9.9 2 1.5 3.2 1.6 1.1 6.4.8 13.1-1.2 19.2-2.2 6.8-6.6 12.8-12.1 17.2-5.6 4.5-12.3 7.5-19.2 8.9-.4.1-.8.2-1.2.2-3.1.6-6.3.8-9.4.8-1.4 0-2.8-.1-4.2-.2 4.3 1.7 21.5 1 35.5-7.8"/>
    <path d="M329.2 177.9c-.5 5.8-1.4 11.6-2.7 17.3-1.3 5.7-2.9 11.4-4.8 16.9-1.9 5.6-4.1 11-6.5 16.4-2.4 5.4-5 10.7-7.8 15.9-2.7 5.1-5.6 10.1-8.6 14.9-.7.2-1.5.4-2.3.6l-2.9.6c-1 .2-1.9.4-2.9.6l-2.9.5-5.8.9c-1 .2-2 .2-2.9.4l-2.9.3-2.9.4-2.9.3-5.9.5c-1 .1-2 .1-3 .2l-3 .2-5.1.3-5.1-.3-3-.2c-1-.1-2-.1-3-.2l-5.9-.5-2.9-.3-2.9-.4-2.9-.3c-1-.1-2-.2-2.9-.4l-5.8-.9-2.9-.5c-1-.2-1.9-.3-2.9-.6l-2.9-.6c-.8-.2-1.5-.4-2.3-.6-3.1-4.8-5.9-9.8-8.6-14.9-2.8-5.2-5.4-10.5-7.8-15.9-2.4-5.4-4.5-10.9-6.5-16.4-1.9-5.6-3.6-11.2-4.8-16.9-1.3-5.7-2.2-11.5-2.7-17.3-.5-5.8-.4-11.6.3-17.4l.6-4.3.9-4.2 2.2-8.6c.5-1.7 1-3.4 1.4-5.1 1.2-2.8 2.4-5.7 3.6-8.6 1.7-4.3 3.3-8.6 4.7-13.1.6-2 1.2-4.1 1.8-6.2.1-.2.1-.3.2-.5 2.2-5.8 3.5-11.8 4.6-17.7 1-5.9 1.9-11.9 2.6-17.8l.5-4.5.3-2.2v-.1c.2-.8.3-1.7.5-2.5.9-3.9 1.8-7.7 3-11.4l.9-2.7.9-2.7c.6-1.7 1.2-3.4 1.9-5 1.4-3.2 3.1-6.2 4.9-8.9 1.8-2.7 3.8-5.1 5.9-7.2 2.1-2.1 4.3-4 6.4-5.5 1.9-1.4 3.9-2.6 5.7-3.6.6-.2 1.2-.5 1.8-.7.9-.3 1.7-.6 2.6-.9.9-.3 1.8-.6 2.8-.8 1-.2 1.9-.5 2.9-.7l3-.6c2-.3 4.1-.6 6.2-.7l1.6-.1h4.7c.5 0 1 .1 1.5.1s1 .1 1.5.1c1 .1 2 .2 2.9.4 1.9.3 3.8.7 5.5 1.1.9.2 1.8.5 2.7.7 3.1 1.3 6.5 3.1 10 5.6 2.2 1.6 4.3 3.4 6.4 5.5 2.1 2.1 4.1 4.5 5.9 7.2 1.8 2.7 3.5 5.7 4.9 8.9.7 1.6 1.4 3.3 1.9 5l.9 2.7.9 2.7c1.1 3.7 2.1 7.5 3 11.4.2.8.4 1.7.5 2.5v.1l.3 2.2.5 4.5c.7 6 1.6 11.9 2.6 17.8 1.1 5.9 2.4 12 4.6 17.7.1.2.1.3.2.5.6 2.1 1.1 4.1 1.8 6.2 1.4 4.4 3 8.8 4.7 13.1 1.2 2.9 2.4 5.8 3.6 8.6.5 1.7 1 3.4 1.4 5.1l2.2 8.6.9 4.2.6 4.3c.8 5.8.8 11.7.3 17.5m-25.9 84.7c-.3.4-.5.7-.8 1 1.9-2.8 3.8-5.6 5.6-8.4-1.9 3.2-3.6 5.8-4.8 7.4m-100.2 0c-1.2-1.6-2.9-4.2-4.8-7.4 1.8 2.8 3.6 5.6 5.5 8.4-.1-.3-.4-.6-.7-1m135.4-109.9c-2.6-9.1-6.4-17.9-9.9-26.3-3.5-8.4-6.3-17.1-8.4-25.8-2.1-8.7-3.6-17.6-5.4-26.2-1.7-8.6-3.9-17-6.7-24.7-.7-1.9-1.4-3.8-2.2-5.6-.8-1.9-1.6-3.7-2.5-5.4-1.8-3.5-3.8-6.7-6-9.5a46.612 46.612 0 0 0-6.7-7.2l-.4-.4c-2.3-2.1-4.8-3.9-7.4-5.5-2.6-1.6-5.4-2.9-8.3-4-.4-.1-.7-.3-1.1-.4-1.4-.6-2.8-1.2-4.4-1.7-1.8-.6-3.8-1.1-5.8-1.5-2.1-.4-4.2-.7-6.4-.9-1.1-.1-2.2-.1-3.3-.1h-1.7l-1.7.1c-2.2.1-4.5.4-6.6.8-1.1.2-2.1.5-3.2.7-1 .3-2.1.6-3.1.9-1 .3-2 .7-2.9 1-.3.1-.6.2-1 .4l-1.8.6c-2.9 1.1-5.6 2.4-8.3 4-2.6 1.6-5.1 3.5-7.4 5.5l-.4.4c-2.3 2.1-4.6 4.5-6.7 7.2-2.2 2.9-4.2 6-6 9.5-.9 1.7-1.7 3.5-2.5 5.4-.7 1.8-1.5 3.7-2.2 5.6-2.8 7.7-5 16-6.7 24.7-1.8 8.6-3.2 17.5-5.4 26.2-2.1 8.8-4.9 17.4-8.4 25.8-3.5 8.5-7.4 17.2-9.9 26.3-2.6 9.1-4 18.6-3.6 27.8l.1 1.6c0 .6.1 1.2.1 1.7.1 1.2.2 2.3.4 3.4.1 1.1.3 2.2.5 3.3.2 1.1.4 2.2.6 3.2.9 4.3 2.2 8.3 3.5 12.2 2.8 7.7 6.1 14.7 9.5 20.8.8 1.5 1.7 3 2.5 4.5s1.6 2.9 2.4 4.3c.8 1.4 1.6 2.7 2.4 4 .8 1.3 1.5 2.6 2.3 3.8 2.9 4.9 5.7 9 8.2 12.3 2.4 3.3 4.5 5.7 6 7.3.7.8 1.4 1.3 1.8 1.7l.3.4.5.1v.1c.6.1 1.1.3 1.7.6.7 0 1.3.1 2.1.4.2.1.4.1.5.2.1 0 .2 0 .3.1h.2c.4 0 .7.1 1 .2h.2c1 .2 2 .1 3 .3l3 .3 6.1.6c1 .1 2 .1 3 .2l3 .2 3 .2 3.1.1 6.1.1h3l3-.1 5.3-.1 5.3.1 3 .1c1 0 2 .1 3 0l6.1-.1 3.1-.1 3-.2 3-.2c1-.1 2-.1 3-.2l6.1-.6 3-.4c.5-.1 1.1-.1 1.6-.2.2-.1.4-.1.6-.2.6-.2 1.3-.3 2-.3.6-.1 1.2-.2 1.8-.2 1.1-.2 2.3-.5 3.5-.6l.2-.1.3-.5c.4-.3 1.1-.9 1.8-1.7 1.5-1.6 3.6-4 6-7.3s5.2-7.4 8.2-12.3c.8-1.2 1.5-2.5 2.3-3.8.8-1.3 1.6-2.6 2.4-4 .8-1.4 1.6-2.8 2.4-4.3.8-1.5 1.6-3 2.5-4.5 3.4-6.1 6.8-13.1 9.5-20.8 1.4-3.9 2.6-7.9 3.5-12.2.2-1.1.4-2.2.6-3.2.2-1.1.4-2.2.5-3.3.1-1.1.3-2.2.4-3.4 0-.6.1-1.2.1-1.7l.1-1.6c.8-9.3-.5-18.8-3.2-27.9"/>
    <path d="M284.7 195.7c0-2.5.4-4.9 1.3-6.9.6-1.4 1.6-3.1 3.2-3.4h.3c1.5 0 2.8 1.5 3.3 3.9.5 2.5.1 5.6-1.2 8.1-1.4 2.7-2.6 4.4-3.9 6.1l-6 7.7 1.1-2.6c1.2-2.8 1.5-4.7 1.7-6.4.1-1.8.2-3.6.2-6.5m25.8-21.7c.6-.7 1-1.5 1-2.5 0-.9-.4-1.7-1-2.4-.6-.6-1.5-.9-2.4-.9-.9 0-1.7.4-2.3 1-.6.7-1 1.5-1 2.5 0 1.9 1.6 3.3 3.4 3.3.9 0 1.7-.3 2.3-1m-93.7 43.9c1.1-.3 2.1-1 2.7-2 .6-1 .7-2.2.4-3.3-.3-1.1-1-2.1-2-2.6-1-.6-2.1-.7-3.2-.4-1.1.3-2.1 1-2.7 2.1-1.2 2.1-.5 4.7 1.6 5.9 1 .4 2.1.6 3.2.3m83-122.3c-.1-3.9-2.7-8.2-5.4-11-.2 1.1-1.8 3.7-1.8 3.6-.2-3.4-4.4-5.8-5.8-6.6.1 1.3-.8 4.3-1 4.3-.2.1-2.6-4.6-11.4-6.5-.5 8.4 3.7 12.7 3.5 12.9 0 .3-3.1.5-4.3 0 .4 1.6 1.7 6.3 5 7.2.1 0-2.8 1-3.9 1 2.1 3.3 5.6 6.8 9.3 7.8 2.6.7 6.6.4 8.5-1.7 0 0 .1-.1.1-.2.1-.2.2-.3.3-.5.1-.1.1-.2.2-.3.2-.4.4-.9.4-1.2.1.1 2.2-.3 3.1-1.1 2.3-1.6 3.3-5.2 3.2-7.7m4.9 40.1c-1.7-3.2-10-8.6-20.1-7.8-10.1.8-17.3 10.3-17.3 10.3s-.5 1 .2 1.3c.2.1.3 0 .6-.1 1.3-.1 5.2-.1 12.5 2.1 1 .4 2.2.8 3.4 1.5 3.7 1.9 4.7 3.5 5.4 3.7.6.2 1.6.6 3.4.3 1.8-.3 5.3-2.1 7.7-4.7 2.3-2.6 5.1-2.1 5.3-2 .1.1.6-1.4-1.1-4.6m-61.6 30.4c-.2-4.8-2.6-6.5-3.1-7.9-.5-1.4-.3-2-.3-2h-1.5c-6.8-.1-9.4-3.7-9.4-3.7l-.5.2s-7 2.5-9.7 10.8c-2.7 8.3-.5 16.2 4 20.5 4.4 4.2 10.5 6.6 10.5 6.6s-.9-3.3 1.8-6.9c2.8-3.6 5-5.4 5.1-7.4 0-2-.7-2.7-.7-2.7s1.6-1.1 2.8-3.1l.9-2.2c.1-.6.2-1.4.1-2.2m7.8-13.2c-1.6-.1-3.2.4-4.4 1.5-2.4 2.2-2.6 6.1-.5 8.5 1 1.2 2.5 1.9 4 2 1.6.1 3.2-.4 4.4-1.5 1.2-1.1 1.9-2.6 2-4.2.1-1.6-.4-3.2-1.5-4.4-1-1.1-2.4-1.8-4-1.9m29.6-6c-6.9-5.9-14.5-4.2-14.5-4.2l-.5.1s-.4 4.6-6 8.4c-.1 0-.2.1-.5.3-.4.3-.8.5-1.3.7 0 0 .5.4.8 2 .3 1.6-.9 4.5 1.5 8.9.4.8.9 1.4 1.4 1.9l2 1.4c2.1 1.1 4.1 1.2 4.1 1.2s-.3 1.1.8 2.8c1.1 1.7 4.1 2.1 8.5 3.7 4.4 1.7 5.4 5.1 5.4 5.1s4.1-5.5 5.7-11.8c1.8-6.4-.5-14.6-7.4-20.5"/>
    <path d="M279.2 122.3h-.2zm-9.4-.6c.3 1.2.2 2.3-1 2.3h-.1c-.3 0-.5 0-.6.1-.5.1-1.2.3-1.4.7-.1 0-.9.5-.3 2.7 0 0 .8 4.2.6 6.5l.1-.1c.4-.4 3.1-2.7 3.9-3.4 2.4-1.7 5.7-3.6 9.7-4.4 2.2-.3 4.5-.5 6-.5 2.7-.1 4.6-2.5 5.2-4.2.6-1.6 1.5-3.1 2.8-3.3 1.3-.2.6-1-1.8-1.4-2.4-.4-8.8-4-14.7-2.9-5.9 1-8.7 6.7-8.4 7.9m-9.3-1.4c-4.2.3-8 4.2-8.7 5.7-.1.2-.2.5-.3.7 0 0 12 9.8-1.3 23.8 0 0 .6-.4 1.5-1.2-.9.9-1.5 1.2-1.5 1.2l.1.3s9.4-.2 12.4-9.1c3-9 .8-13.6.5-16.4-.2-2.8 2-2.7 2.3-3.1.4-.4-.8-2.2-5-1.9m-26.7 11.2c-1.3-.9-6.2-2.7-10.1-1.1-3.9 1.6-4.1 3.7-3.7 3.9.4.2 2.4-.8 3.3 1.7 1 2.5 1 7.6 7.5 14.1s14.8 2.4 14.8 2.4v-.3s-.7 0-1.8-.4c1.1.3 1.8.4 1.8.4-17.7-6.4-11.3-20.3-11.3-20.3-.1-.1-.3-.3-.5-.4m-9.7 20.7 3.1-1.7-.3-.5c-.3-.3-.6-.7-1-1-1.6-2.2-2.8-5-2.8-5s-19.2-5-29.2 10.9c-.4.6-.8 1.3-1.2 1.9-2.2 4.2-2.9 5.9-3.6 6.6-.7.7-.7 1.2.5 1.4 1.1.2 1.7-.2 3.7 1.6s5.2 3 7.4 2.5 2.6-1.2 2.6-1.2 1.4 2.3 5.2 1.9c3.6-.4 5.4-2.2 6.5-6.1 2.3-5.9 6.3-9.5 9.1-11.3m43-35s1-.7 2.3-1.1c1.3-.3 3.3-.8 4-2.6.7-1.8-.3-2.2-.3-2.2s1-1 .9-2.3c-.1-1.3-.2-1.4-.2-1.9s.6-.5.6-.5-1.9 0-3.8.8c-1 .4-1.6.9-1.9 1.3-3.1 2.9-2 7.2-1.7 8.3.1.1.1.2.1.2m-54.5 6.6c1.2 2.5 2.9 4.4 4.6 5.3 1.5.7 2.3 1 2.5 1 0 0 5.8-5.7 15.6-1.7 0 0 1.8-4.7 2.8-7.3 0-.1-.1-.1-.1-.2 0 0 0-.1-.1-.1-.1-.3-.3-.6-.5-.9-1.3-2.2-3.2-4-5-5.9-.2-.2-.4-.4-.7-.5-6-4.5-11.5-5.4-11.5-5.4s.9 1.4.5 3.4-.5 3.7-.2 4.6c.2.9.8 1.5.8 1.5s-4.1-.6-7.6.7c-3.4 1.4-4.5 3.5-4.5 3.5s2.3-.4 3.4 2m31.2-4.7c0 .3.1.6.1.9v.3l6 4c5.3-8.4 12.7-7.3 12.7-7.3.1-.2.6-.7 1.3-2.1.9-1.7 1.1-4.1.7-6.6-.4-2.5 1.4-3.4 1.4-3.4s-1.9-1-5.2-.2c-3.3.9-6.1 3.6-6.1 3.6s.1-.8-.2-1.6c-.3-.8-1.3-2.1-2.6-3.4-1.4-1.3-1.4-2.8-1.4-2.8s-3.6 3.7-5.8 10.4c-.1.3-.2.5-.2.8-.3 2.6-.8 5-.7 7.4"/>
    <path d="M193.8 137c.9 2.1 2.8 5.1 6.1 6.5 2.6 1.1 5.5.3 7.9-.6.2 0 .5-.1.7-.2.6-.2 1.4-.5 2.3-.8 1.8-.5 4-.7 5.8-.8 1 .1 2 .2 2.8.4.7.2 2.9.9 3.3 1-.7-1.4-1.3-4.1-1.3-4.1-.1-.9-.4-1.3-.6-1.5-.3-.1-.6-.2-1 0-.4.1-.8.3-1.2.2-.2 0-.3-.1-.5-.1h-.1c-.5-.2-.9-.7-1.1-1.2-.3-.8-.3-1.6-.2-2.4 0-.8.2-1.5.2-1.5-3-1.5-5.2-4.3-5.2-4.3s-4-1.6-8.9-1c-4.9.6-8.5 2.9-10 4.6-1.5 1.6-3 3.7-2.5 3.7s2.6 0 3.5 2.1m58.6 6.5c0-.2 6.4-10.1-11.5-22.1 0 0-12.4 21.6 1.8 27.1 0 0 6.1 2.2 9.7-5m-13.3-26.4 1.5 1.7c-.5-3 2.4-11 2.4-11.1-1.7-1.2-1.9-4.5-1.9-4.3-2.6 1.9-2.1 4.2-2.1 4-.9-1.4-3.7-2.8-3.6-2.7-1.6-.6-2.1-2.5-2.1-2.5h-.1c-3.2 3-1.1 7.7-1.2 7.7 4 2.3 7.1 7.2 7.1 7.2m-21.4-43.4c-1.4-.1-2.7.4-3.7 1.3-2.1 1.9-2.2 5.1-.4 7.3.9 1 2.1 1.6 3.4 1.7 1.4.1 2.7-.4 3.7-1.3s1.6-2.2 1.7-3.5c.1-1.4-.4-2.7-1.3-3.7-.9-1.1-2.1-1.7-3.4-1.8M236.2 197s19.8 26-8.8 44.2c.1-.2 40-19 8.8-44.2m-16.2-6.4s-6.5-4-9.9-10.1c0 0-3.7-7.1-7.8-3.7h-.2s-2.3 2.9.5 7.1c-.5.1 7.9 8.8 17.4 6.7m76.3 26.9s9.2-3.4 10.7 1.5c-.1.1 1.6-4.8-2-5.4 0 0-2.7-1-10.1 4.3zM229.4 77.7s-27.7-20.2-6.9-42.7c-.2.1-10.6 23 6.9 42.7m11.5-4.6c.7 0 1.3-.3 1.7-.8.5-.5.7-1.1.7-1.8s-.3-1.3-.7-1.7c-.5-.5-1.1-.7-1.7-.7-.7 0-1.3.3-1.7.8-.9 1-.9 2.5.1 3.5.4.5 1 .7 1.6.7"/>
    <path d="M268 97.2s-36.3-10.9-36.2-33.4c-.1.3-.6-19.1 21.2-23.9 0 0-6.3.4-12.6 3.2-.4.3-.9.5-1.3.7l-1.8 1.2c-2.2 1.5-4.1 3.5-5.4 5.9-2 3.7-3.1 7.6-3.6 11.7v.1c0 .9-.1 1.9-.1 2.8.1.9.3 1.7.4 2.6.5 2.1 1.3 4.3 2.3 6.6 0 0 6.2 16.4 40 26.2-.4-.2-2.9-3.7-2.9-3.7"/>
    <path d="M239.9 72.5s-.4 5.5 10.5 13.5c-.2 0-8.6-6.8-8.6-13.7.8.1-1.9.2-1.9.2m28.7 174.7c-.1-.2-.2-.4-.3-.7-.5-.5-1.1-.9-1.8-1.3 0 .2.1.4.2.6-2.7 1.6-5.8 3-9 4.1-5.6 1.9-11.8 3.1-18.2 3.6-6.4.5-12.9.4-19.4-.4-2.1-.3-4.2-.6-6.3-1.1-.1.2-.1.3-.2.5 2.1.5 4.2 1 6.4 1.3 6.6 1.1 13.3 1.5 19.9 1.2 6.6-.3 13.1-1.2 19.2-3 3.3-.9 6.4-2.2 9.3-3.7.1.1.2.1.2.2z"/>
    <path d="M272.5 245.8c-.2 1.8-1.8 3.1-3.6 2.8a3.261 3.261 0 0 1-2.9-3.6c.2-1.8 1.8-3.1 3.6-2.8 1.8.2 3.1 1.8 2.9 3.6m-36.7 2.4s40.8-12.4 63.9-49.1l2.7 1.6c0-.1-19.5 33.9-66.6 47.5m-41.1-35.7s-7.8-3.4 1.3-13.6c0 0 4.8-4.8 14.8-4 10 .9-5.6 2.1-5.6 2.1l-3.8 3.9-3 5.2zm93.2-64.7s7.4 4 12.5-5.5l-21.7-4.8-7.9.5-3.3 1.5c-.1 0 13.2.1 20.4 8.3m-29-133.9s17.3.5 30.6 15.5c-.1-.1-5.1-15.2-31-15.5"/>
    <path d="M257 7.6s27 .5 42.9 24.8c.2.3-25.4-17.3-25.4-17.3zM30.9 331.7h-1.5l-12.2-13.3c-.1.1-.1.1-.2.1v21.3H7.5v-44.3H9l21.1 24.4 21-24.4h1.4v44.3H43v-21.3c-.1-.1-.1-.1-.3-.1zm42.8-24c-2.6 2.8-3.8 6.2-3.8 10.3 0 4.2 1.3 7.7 3.7 10.5 2.5 2.8 5.8 4.2 10 4.2 4 0 7.3-1.4 9.8-4.2 2.5-2.8 3.8-6.3 3.8-10.4 0-4.1-1.3-7.5-3.8-10.3-2.4-2.8-5.7-4.2-9.8-4.2-4.1-.1-7.3 1.3-9.9 4.1m-7.4 26.5c-4.2-4.3-6.3-9.6-6.3-16.2 0-6.3 2.2-11.7 6.7-16.1 4.5-4.4 10.1-6.5 16.9-6.5 6.8 0 12.4 2.2 16.8 6.5s6.5 9.6 6.5 16.1c0 6.4-2.2 11.8-6.6 16.1-4.4 4.3-10 6.4-16.8 6.4-7.2 0-12.9-2.1-17.2-6.3m82.5 3.8c-3.5 1.7-7.7 2.6-12.7 2.6-7.3 0-13-2.1-17.2-6.3-4.1-4.2-6.1-9.6-6.1-16.1 0-6.4 2.2-11.8 6.5-16.3 4.4-4.4 10-6.6 17.1-6.6 4.5 0 8.2.6 11 1.8v8.3c-3-1.4-6.3-2-9.6-2-4.2 0-7.8 1.3-10.7 4-2.8 2.6-4.3 6.2-4.3 10.9 0 9 5.6 14.4 14.5 14.4 3.9 0 7.7-1 11.5-2.9zm24.7-17.7H165v11.8h8.9c5 0 6.8-2.8 6.8-6 0-3.6-2.7-5.8-7.2-5.8m-8.5-16.8v9.8h7.3c3.1 0 6-1.2 6-4.8 0-3-2-5-5.7-5zm17.6 12.7c5.1 1.8 7.6 6.1 7.6 10.7 0 3.6-1.3 6.7-3.9 9.1-2.6 2.4-5.9 3.7-9.9 3.7h-20.9V296h19.4c3.8 0 6.9 1 9.2 3 2.4 2 3.6 4.6 3.6 7.9 0 3.4-1.8 6.9-5 9v.3zm27.2-8.5c-2.6 2.8-3.8 6.2-3.8 10.3 0 4.2 1.3 7.7 3.7 10.5 2.5 2.8 5.8 4.2 10 4.2 4 0 7.3-1.4 9.8-4.2 2.5-2.8 3.8-6.3 3.8-10.4 0-4.1-1.3-7.5-3.8-10.3-2.4-2.8-5.7-4.2-9.8-4.2-4.1 0-7.3 1.3-9.9 4.1m-7.4 26.5c-4.2-4.3-6.3-9.6-6.3-16.2 0-6.3 2.2-11.7 6.7-16.1 4.5-4.4 10.1-6.5 16.9-6.5 6.8 0 12.4 2.2 16.8 6.5s6.5 9.6 6.5 16.1c0 6.4-2.2 11.8-6.6 16.1-4.4 4.3-10 6.4-16.8 6.4-7.2 0-12.9-2.1-17.2-6.3m74.2-30.9h-10.8l-2 21.6c-.6 5-1.9 8.8-3.9 11.4-1.9 2.6-5.3 4.2-10 4.9l-3.8-6.6c3.1-.7 5.2-1.8 6.3-3.2 1.1-1.5 1.8-3.8 2.1-7.2l2.5-28h29.5v43.5h-9.8c0-4 0-10-.1-18.2zm31.1 4.4c-2.6 2.8-3.8 6.2-3.8 10.3 0 4.2 1.3 7.7 3.7 10.5 2.5 2.8 5.8 4.2 10 4.2 4 0 7.3-1.4 9.8-4.2 2.5-2.8 3.8-6.3 3.8-10.4 0-4.1-1.3-7.5-3.8-10.3-2.4-2.8-5.7-4.2-9.8-4.2-4.1-.1-7.3 1.3-9.9 4.1m-7.4 26.5c-4.2-4.3-6.3-9.6-6.3-16.2 0-6.3 2.2-11.7 6.7-16.1 4.5-4.4 10.1-6.5 16.9-6.5 6.8 0 12.4 2.2 16.8 6.5s6.5 9.6 6.5 16.1c0 6.4-2.2 11.8-6.6 16.1-4.4 4.3-10 6.4-16.8 6.4-7.2 0-12.9-2.1-17.2-6.3m84.9 5.6h-9.8V321h-17.3v18.8h-9.8v-43.6h9.8v17.1h17.2v-17.1h9.8v43.6zm40.6-36.1h-12.7v36.1h-9.8v-36.1h-12.8v-7.6h35.3zm26.6-12.2c-2.4 0-4.1-1.8-4.1-4.1 0-2.4 1.9-4.2 4.1-4.2 2.4 0 4.1 1.9 4.1 4.1 0 2.4-1.7 4.2-4.1 4.2m-12.4 0c-2.4 0-4.2-1.8-4.2-4.1 0-2.4 2-4.2 4.2-4.2 2.4 0 4.2 1.9 4.2 4.1 0 2.4-1.8 4.2-4.2 4.2m21.9 40.7v7.6h-30.8v-43.6h29.5v7.6h-19.7v9.6h17.6v7.3h-17.6v11.4h21zm16.6-28.6v14.8h5.2c6 0 8.4-3.4 8.4-7.3 0-4.2-2.8-7.5-8.3-7.5zm-9.9 36.2v-43.5h16.7c5.3 0 9.4 1.5 12.2 4.3 2.8 2.8 4.3 6.3 4.3 10.3 0 4.3-1.5 7.8-4.5 10.6s-6.8 4.2-11.6 4.2h-7.3v14.1z"/>
  </g>
</svg>
