<?xml version="1.0" encoding="UTF-8"?>
<svg xmlns="http://www.w3.org/2000/svg" width="203" height="47" fill="none">
  <g fill="#2dc3e8">
    <path d="M0 34.236h6.655V32.66H1.4v-2.276h5.254v-1.576H0v5.428Zm0-7.88h6.655v-1.489H1.4v-2.364h5.254v-1.488H0v5.34Zm0-13.397v1.839l2.89 2.189H0v1.576h6.655v-1.576H3.502l3.153-2.277v-1.926l-3.59 2.714L0 12.958Zm17.512-.175h-8.23v21.453h4.64v-6.743h4.115a7.224 7.224 0 0 0 7.005-6.216c.263-2.277-.175-4.378-1.838-6.13-1.489-1.663-3.503-2.364-5.692-2.364Zm.525 10.42c-1.313.087-2.714 0-4.027 0v-6.042h.35c1.226 0 2.452 0 3.677.088 1.489.175 2.452 1.4 2.452 2.977-.087 1.488-1.05 2.802-2.452 2.977ZM35.2 8.844c-4.203 2.189-6.48 5.866-7.618 10.507h6.392c.175 0 .438-.263.525-.438 1.926-4.29 6.217-6.392 10.77-5.078 3.24.875 5.254 3.064 6.305 6.392H39.753v6.041h11.733c-1.138 4.816-6.392 7.793-11.295 6.392-2.89-.788-4.816-2.714-5.867-5.516-.088-.175-.263-.438-.438-.438h-6.392c.613 3.415 2.014 6.305 4.466 8.581 2.977 2.802 6.567 4.116 10.595 4.116 4.203 0 8.055-1.226 11.12-4.203 4.64-4.466 5.954-9.982 4.466-16.112C55.6 8.143 43.693 4.29 35.2 8.844ZM85.635 0C72.764 0 62.344 10.507 62.344 23.379c0 4.728 1.4 9.019 3.765 12.696h6.83v-6.83c-.788-1.838-1.314-3.765-1.314-5.866a13.94 13.94 0 0 1 14.01-14.01c2.102 0 4.116.438 5.867 1.313h6.83V3.765C94.654 1.401 90.276 0 85.635 0Z"/>
    <path d="M98.245 10.683v6.83c.787 1.839 1.313 3.765 1.313 5.866a13.94 13.94 0 0 1-14.01 14.01c-2.102 0-4.115-.438-5.867-1.313h-6.83v6.917c3.678 2.364 7.969 3.765 12.697 3.765 12.872 0 23.291-10.507 23.291-23.379 0-4.728-1.401-9.018-3.765-12.696h-6.83Zm18.734 4.82h-1.237V8.7h1.979c.495 0 .866 0 1.237.124.371.123.618.247.865.494.248.248.371.495.371.742.124.248.124.495.124.866 0 .618-.247 1.113-.618 1.608-.495.37-.99.618-1.855.618h-.866v2.35Zm.742-5.689h-.866v2.102h.866c.371 0 .742-.123.866-.247.247-.124.371-.495.371-.866.123-.618-.371-.989-1.237-.989Zm3.465 2.226c0-.99.371-1.855.989-2.473.618-.619 1.484-.99 2.597-.99.989 0 1.855.371 2.597.99.618.618.989 1.484.989 2.597 0 .989-.371 1.855-.989 2.473-.618.618-1.484.99-2.597.99-.989 0-1.855-.372-2.597-.99s-.989-1.484-.989-2.597Zm1.236 0c0 .742.248 1.237.619 1.731.494.495.989.742 1.607.742.742 0 1.237-.247 1.608-.742.371-.494.618-.989.618-1.731 0-.742-.247-1.237-.618-1.731-.495-.495-.989-.619-1.608-.619-.618 0-1.236.248-1.607.619-.495.494-.619 1.113-.619 1.731Zm11.872 1.855.494.866c-.247.247-.494.371-.865.495-.371.123-.866.247-1.237.247-.989 0-1.855-.37-2.597-.99-.618-.618-.989-1.483-.989-2.596 0-.99.247-1.855.865-2.474.619-.618 1.484-.989 2.597-.989.866 0 1.608.247 2.103.742l-.495.866c-.495-.248-.989-.495-1.484-.495-.618 0-1.113.247-1.608.618-.371.495-.618.99-.618 1.732s.247 1.236.618 1.731c.495.495.99.618 1.732.618.494.248.989 0 1.484-.37Zm6.181 0 .495.866c-.247.247-.495.371-.866.495-.371.123-.865.247-1.236.247-.99 0-1.855-.37-2.597-.99-.619-.618-.99-1.483-.99-2.596 0-.99.248-1.855.866-2.474.618-.618 1.484-.989 2.597-.989.866 0 1.608.247 2.102.742l-.494.866c-.495-.248-.99-.495-1.484-.495-.619 0-1.113.247-1.608.618-.371.495-.618.99-.618 1.732s.247 1.236.618 1.731c.495.495.989.618 1.731.618.371.248.99 0 1.484-.37Zm2.598 1.608h-.989V8.7h1.237v4.823l3.586-4.823h.989v6.802h-1.236V10.68l-3.587 4.823Zm7.792 0h-1.113V8.7h1.237v4.823l3.586-4.823h1.113v6.802h-1.237V10.68l-3.586 4.823Zm0-8.533h1.113c.124.37.371.618.866.618.494 0 .742-.247.742-.618h1.113c0 .37-.248.742-.495.99-.371.246-.866.37-1.36.37-.619 0-.99-.124-1.361-.37-.371-.125-.618-.496-.618-.99Zm11.378 6.925.495.866c-.248.247-.495.371-.866.495-.371.123-.866.247-1.237.247-.989 0-1.855-.37-2.597-.99-.618-.618-.989-1.483-.989-2.596 0-.99.247-1.855.866-2.474.618-.618 1.484-.989 2.597-.989.865 0 1.607.247 2.102.742l-.495.866c-.494-.248-.989-.495-1.484-.495-.618 0-1.113.247-1.607.618-.371.495-.619.99-.619 1.732s.248 1.236.619 1.731c.494.495.989.618 1.731.618.495.248.989 0 1.484-.37Zm1.605 1.608V8.7h1.236v3.215l2.721-3.215h1.484l-2.844 3.215 2.968 3.587h-1.484l-2.845-3.463v3.463h-1.236Zm7.544 0h-.99V8.7h1.237v4.823l3.586-4.823h1.113v6.802h-1.236V10.68l-3.71 4.823Zm7.793 0h-.99V8.7h1.237v4.823l3.586-4.823h.99v6.802h-1.237V10.68l-3.586 4.823Zm0-8.533h1.113c.123.37.371.618.865.618.495 0 .742-.247.742-.618h1.113c0 .37-.247.742-.494.99-.371.246-.866.37-1.361.37-.618 0-.989-.124-1.36-.37-.371-.125-.618-.496-.618-.99Zm-62.577 17.314V23.17h3.091c-.123-.619-.371-.99-.865-1.36-.495-.248-.99-.495-1.608-.495-.618 0-1.113.123-1.608.494l-.494-.865c.618-.495 1.36-.742 2.349-.742.99 0 1.855.37 2.474.989.618.618.989 1.484.989 2.597s-.371 1.979-.989 2.597c-.619.618-1.484.99-2.597.99-.495 0-.866-.124-1.361-.248-.371-.124-.742-.247-.989-.495l.495-.99c.494.372 1.113.62 1.731.62.618 0 1.113-.124 1.608-.495.371-.371.742-.742.742-1.36h-2.968v-.124Zm5.689 2.843v-6.801h1.237v3.215l2.72-3.215h1.484l-2.844 3.215 2.968 3.586h-1.608l-2.844-3.462v3.462h-1.113Zm5.687-3.339c0-.989.371-1.855.99-2.473.618-.618 1.484-.99 2.597-.99.989 0 1.855.372 2.597.99.618.618.989 1.484.989 2.597 0 .99-.371 1.855-.989 2.473-.619.619-1.484.99-2.597.99-.99 0-1.855-.371-2.597-.99-.742-.742-.99-1.607-.99-2.597Zm1.237 0c0 .742.247 1.237.618 1.732.495.494.99.742 1.608.742.742 0 1.237-.248 1.608-.742.371-.495.618-.99.618-1.732s-.247-1.236-.618-1.731c-.495-.495-.99-.618-1.608-.618-.618 0-1.237.247-1.608.618-.494.371-.618.99-.618 1.731Zm11.007 3.34v-5.69h-1.979l-.123 1.238c-.124.742-.124 1.484-.248 1.978a19.7 19.7 0 0 1-.371 1.36c-.123.372-.371.619-.494.742-.248.124-.371.248-.619.372h-.742V25.89h.371c.124 0 .248-.124.371-.247.124-.124.248-.371.371-.619.124-.247.248-.742.248-1.236.123-.619.123-1.237.247-1.98l.124-1.36h4.328v6.802h-1.484v-.123Zm2.473-3.34c0-.989.371-1.855.99-2.473.618-.618 1.484-.99 2.597-.99.989 0 1.855.372 2.597.99.618.618.989 1.484.989 2.597 0 .99-.371 1.855-.989 2.473-.619.619-1.484.99-2.597.99-.99 0-1.855-.371-2.597-.99-.619-.742-.99-1.607-.99-2.597Zm1.361 0c0 .742.247 1.237.618 1.732.495.494.989.742 1.608.742.742 0 1.236-.248 1.607-.742.371-.495.619-.99.619-1.732s-.248-1.236-.619-1.731c-.494-.495-.989-.618-1.607-.618-.619 0-1.237.247-1.608.618-.495.371-.618.99-.618 1.731Zm7.174 3.339v-6.801h3.834v1.113h-2.597v5.688h-1.237Zm5.935 0h-.989v-6.801h1.236v4.823l3.587-4.823h1.113v6.801h-1.237v-4.823l-3.71 4.823Zm11.254-6.801v6.802h-1.236v-2.844c-.371.37-.99.494-1.608.494-.618 0-1.113-.123-1.484-.494s-.618-.866-.618-1.608v-2.35h1.236v1.979c0 .99.371 1.36 1.237 1.36.495 0 .866-.123 1.36-.494v-2.968h1.113v.123Zm1.977 6.801v-6.801h3.958v1.113h-2.721v1.731h2.473v1.113h-2.473v1.731h2.844v1.113h-4.081Zm10.267-1.483.494.866c-.247.247-.494.37-.865.494s-.866.248-1.237.248c-.989 0-1.855-.371-2.597-.99-.618-.618-.989-1.484-.989-2.597 0-.99.247-1.855.865-2.473.619-.619 1.484-.99 2.597-.99.866 0 1.608.248 2.103.742l-.495.866c-.495-.247-.989-.494-1.484-.494-.618 0-1.113.247-1.608.618-.371.494-.618.99-.618 1.731 0 .742.247 1.237.618 1.732.495.494.99.618 1.732.618.494.124.989 0 1.484-.371Zm1.606 1.483v-6.801h1.237v3.215l2.721-3.215h1.484l-2.845 3.215 2.968 3.586h-1.484l-2.844-3.462v3.462h-1.237Zm7.667 0h-.989v-6.801h1.237v4.823l3.586-4.823h1.113v6.801h-1.236v-4.823l-3.711 4.823Zm7.669.001h-1.113v-6.802h1.237v4.823l3.586-4.823h1.113v6.802h-1.237v-4.823l-3.586 4.823Zm0-8.41h1.113c.124.371.371.619.866.619.494 0 .742-.248.742-.619h1.113c0 .371-.248.742-.495.99-.371.247-.866.37-1.36.37-.619 0-.99-.123-1.361-.37-.371-.248-.494-.619-.618-.99Zm-82.363 16.696c0-.99.371-1.855.989-2.474.619-.618 1.484-.99 2.597-.99.99 0 1.855.372 2.597.99.619.619.99 1.484.99 2.597 0 .99-.371 1.855-.99 2.474-.618.618-1.484.989-2.597.989-.989 0-1.855-.371-2.597-.99-.742-.741-.989-1.483-.989-2.596Zm1.237 0c0 .742.247 1.236.618 1.731.495.495.989.742 1.608.742.742 0 1.236-.247 1.607-.742s.619-.99.619-1.731c0-.742-.248-1.237-.619-1.732-.494-.494-.989-.618-1.607-.618-.619 0-1.237.247-1.608.618-.371.495-.618.99-.618 1.732Zm11.5 3.462v-5.689h-3.092v5.689h-1.237v-6.802h5.442v6.802h-1.113Zm2.968 0v-6.802h3.958v1.113h-2.721v1.732h2.473v1.113h-2.473v1.731h2.844v1.113h-4.081Zm6.803 0h-1.236v-6.802h1.978c.495 0 .866 0 1.237.124.371.124.618.247.866.495.247.247.371.494.371.742.123.247.123.494.123.865 0 .619-.247 1.113-.618 1.608-.495.37-.989.618-1.855.618h-.866v2.35Zm.866-5.689h-.866v2.103h.866c.371 0 .742-.124.866-.248.247-.123.371-.494.371-.865 0-.742-.371-.99-1.237-.99Zm2.474 5.689 2.844-6.802h.989l2.845 6.802h-1.237l-.742-1.731h-2.968l-.742 1.731h-.989Zm3.339-5.318-.99 2.474h1.979l-.989-2.474Zm2.967-.371v-1.113h5.565v1.113h-2.226v5.689h-1.236v-5.689h-2.103Zm5.936 2.227c0-.99.371-1.855.989-2.474.619-.618 1.484-.99 2.597-.99.99 0 1.855.372 2.597.99.619.619.99 1.484.99 2.597 0 .99-.371 1.855-.99 2.474-.618.618-1.484.989-2.597.989-.989 0-1.855-.371-2.597-.99-.742-.741-.989-1.483-.989-2.596Zm1.237 0c0 .742.247 1.236.618 1.731.495.495.989.742 1.608.742.742 0 1.236-.247 1.607-.742s.619-.99.619-1.731c0-.742-.248-1.237-.619-1.732-.494-.494-.989-.618-1.607-.618-.619 0-1.237.247-1.608.618-.371.495-.618.99-.618 1.732Zm8.408 3.462h-1.237v-6.802h1.979c.494 0 .865 0 1.236.124s.619.247.866.495c.247.247.371.494.371.742.124.247.124.494.124.865 0 .619-.248 1.113-.619 1.608-.494.37-.989.618-1.855.618h-.865v2.35Zm.865-5.689h-.865v2.103h.865c.371 0 .742-.124.866-.248.247-.123.371-.494.371-.865 0-.742-.495-.99-1.237-.99Z"/>
  </g>
</svg>
