<?xml version="1.0" encoding="UTF-8" standalone="no"?>
<svg xmlns="http://www.w3.org/2000/svg" width="600" height="200" viewBox="0 0 600 200">
    <g fill="#c22025" fill-rule="evenodd">
        <path d="M45.77 75.78H25v47.27h8.3v-17.64h12.47c9.85 0 15.45-6.8 15.45-14.82 0-8-5.53-14.8-15.45-14.8zm-1.14 22.33H33.3V83.08h11.34c4.68 0 8.08 2.98 8.08 7.51 0 4.54-3.4 7.52-8.08 7.52zm51.6 6.38c5.68-.93 11.2-5.46 11.2-13.9 0-8.71-6.09-14.8-15.45-14.8H71.22v47.26h8.29v-17.64h8.22l10.5 17.64h9.56zM79.52 98.1V83.08h11.34c4.68 0 8.08 2.98 8.08 7.51 0 4.54-3.4 7.52-8.08 7.52H79.51m61.38-15.74c7.53 0 12.97 4.6 14.9 11.37l7.91-2.9C160.5 81.34 151.98 75 140.9 75c-14.18 0-24.17 10.35-24.17 24.45s9.99 24.45 24.16 24.45a25.1 25.1 0 0012.38-3.1c1.87-1.26 2.3-3.57.83-5.35a3.92 3.92 0 00-4.34-1.18 32.46 32.46 0 00-1.6.57 15.66 15.66 0 01-7.27 1.7c-9.56 0-15.66-7.38-15.66-17.09 0-9.78 6.1-17.08 15.66-17.08"/>
        <path d="M171.24 93.42l-6.02 37.02-6.11-14.35-1.21-2.84a4.36 4.36 0 00-1.13-1.6c-.45-.39-1-.65-1.64-.77l-1.88-.44-16.45-3.84 19.75-7.56 8.29-3.17 6.4-2.45"/>
        <path fill="#433d50" d="M210.47 98.1l19.21-22.32H219.4l-18.5 22.54V75.78h-8.29v47.27h8.3v-15.1l4.1-4.81 15.88 19.91h10.2zm54.54-22.32h-10.35l-18.57 47.27h9.43l3.47-9.07h21.69l3.47 9.07h9.43zm-13.68 30.9l8.5-22.54 8.5 22.54h-17zm64.57-30.9v20.55a27.46 27.46 0 01-9.85 1.78c-6.24 0-9.57-2.98-9.57-9.79V75.78h-8.3v12.54c0 10.28 5.4 17.08 17.01 17.08 3.9 0 7.95-.77 10.7-1.77v19.42h8.3V75.78h-8.29zm55.18 7.3v-7.3h-32.4v47.27h32.4v-7.3h-24.1v-13.1h23.6v-7.3h-23.6V83.07zm35.6 33.45c-9.35 0-16.3-7.16-16.3-17.08 0-9.92 6.95-17.08 16.3-17.08 5.11 0 9.65 2.98 11.91 6.88l7.1-3.62c-3.55-5.67-9.43-10.63-19-10.63-13.96 0-24.8 9.92-24.8 24.45s10.84 24.45 24.8 24.45c9.57 0 15.38-4.96 19-10.63l-7.1-3.61a13.88 13.88 0 01-11.9 6.87zm25.22-40.75v7.3h14.32v39.97h8.3V83.08h14.3v-7.3zm76.87 22.9c4.39-.93 8.22-4.9 8.22-10.85 0-6.66-4.82-12.05-13.47-12.05h-23.25v47.27h23.89c8.86 0 13.75-5.45 13.75-12.75 0-5.81-4.11-10.85-9.14-11.63zm-20.2-15.6h13.25c4.25 0 6.66 2.62 6.66 6.17 0 3.54-2.41 6.1-6.66 6.1h-13.25zm13.6 32.67h-13.6v-13.1h13.6c4.75 0 7.23 2.97 7.23 6.51 0 4.11-2.7 6.6-7.23 6.6zM552.67 75c-14.17 0-24.17 10.35-24.17 24.45s10 24.45 24.17 24.45c14.18 0 24.17-10.34 24.17-24.45 0-14.1-10-24.45-24.17-24.45zm0 41.53c-9.57 0-15.66-7.37-15.66-17.08 0-9.78 6.1-17.08 15.66-17.08 9.5 0 15.66 7.3 15.66 17.08 0 9.71-6.16 17.08-15.66 17.08"/>
    </g>
</svg>