<?xml version="1.0" encoding="UTF-8" standalone="no"?>
<svg xmlns="http://www.w3.org/2000/svg" width="1232.133" height="347" viewBox="0 0 1232.133 347">
    <path fill="#2a3c98" d="M706.397 174.053h516.912V10.103H706.397v163.95"/>
    <path fill="#e32124" d="M265.573 164.947c-5.653 23.28-17.186 58.88-26.28 81.053-5.226 12.773-6.253 14.267-21.146 15.386-23.84 1.814-61.2 1.814-85.04 0-6.867-.52-10.747-.906-13.6-2.893-2.867-2-4.707-5.573-7.547-12.493-9.08-22.173-20.627-57.773-26.28-81.067-3.253-13.413-3.306-15.226 8.08-24.906 18.227-15.507 48.453-37.507 68.8-50.094 11.733-7.253 13.44-7.853 26.147 0 20.346 12.587 50.56 34.587 68.8 50.094 10.506 8.946 11.6 10.386 8.066 24.92zm9.08-44.374c-19.186-16.32-50.613-39.2-72.04-52.453-25.6-15.827-27.506-16.373-53.973 0-21.413 13.253-52.854 36.133-72.04 52.453-22.933 19.507-24.027 21.16-16.666 51.44C65.88 196.52 77.88 233.56 87.44 256.88c11.427 27.893 12.653 29.44 43.667 31.8 25.093 1.893 63.946 1.893 89.04 0 30-2.28 31.853-2.96 43.68-31.8 9.546-23.333 21.56-60.36 27.506-84.867 7.12-29.28 7.04-31.266-16.68-51.44"/>
    <path fill="#e32124" d="M333.16 328.786H18.173V18.213H333.16zm371.907-155.28v.547H342.4V10.107H8.36v327.907h1214.867V173.507h-518.16"/>
    <path fill="#2a3c98" d="M342.397 174.053h362.675V10.103H342.397v163.95"/>
    <path fill="#fff" d="M265.573 164.947c-5.653 23.28-17.186 58.88-26.28 81.053-5.226 12.773-6.253 14.267-21.146 15.386-23.84 1.814-61.2 1.814-85.04 0-6.867-.52-10.747-.906-13.6-2.893-2.867-2-4.707-5.573-7.547-12.493-9.08-22.173-20.627-57.773-26.28-81.067-3.253-13.413-3.306-15.226 8.08-24.906 18.227-15.507 48.453-37.507 68.8-50.094 11.733-7.253 13.44-7.853 26.147 0 20.346 12.587 50.56 34.587 68.8 50.094 10.506 8.946 11.6 10.386 8.066 24.92zm9.08-44.374c-19.186-16.32-50.613-39.2-72.04-52.453-25.6-15.827-27.506-16.373-53.973 0-21.413 13.253-52.854 36.133-72.04 52.453-22.933 19.507-24.027 21.16-16.666 51.44C65.88 196.52 77.88 233.56 87.44 256.88c11.427 27.893 12.653 29.44 43.667 31.8 25.093 1.893 63.946 1.893 89.04 0 30-2.28 31.853-2.96 43.68-31.8 9.546-23.333 21.56-60.36 27.506-84.867 7.12-29.28 7.04-31.266-16.68-51.44M1131.735 291.939c-3.847-1.975-7.107-4.724-9.784-8.242-2.679-3.513-4.731-7.68-6.158-12.499-1.432-4.817-2.146-10.091-2.146-15.82 0-5.729.714-11.002 2.146-15.822 1.427-4.815 3.479-8.983 6.158-12.5 2.677-3.513 5.937-6.261 9.784-8.242 3.845-1.98 8.21-2.969 13.096-2.969 4.884 0 9.252.99 13.097 2.969 3.847 1.98 7.107 4.729 9.784 8.242 2.677 3.517 4.716 7.685 6.119 12.5 1.406 4.82 2.105 10.093 2.105 15.823 0 5.728-.699 11.002-2.105 15.82-1.403 4.817-3.442 8.985-6.119 12.498-2.677 3.518-5.937 6.267-9.784 8.242-3.845 1.98-8.213 2.971-13.097 2.971-4.886 0-9.251-.99-13.096-2.971zm-38.59-12.694c2.286 7.37 5.716 13.75 10.29 19.141 4.573 5.391 10.317 9.622 17.228 12.695 6.913 3.074 14.97 4.61 24.168 4.61 8.473 0 16.11-1.536 22.92-4.61 6.809-3.073 12.59-7.304 17.346-12.695s8.407-11.771 10.955-19.14c2.544-7.369 3.817-15.326 3.817-23.867 0-8.596-1.273-16.565-3.817-23.91-2.548-7.34-6.199-13.71-10.955-19.1-4.756-5.392-10.537-9.622-17.346-12.697-6.81-3.07-14.447-4.607-22.92-4.607-9.198 0-17.255 1.536-24.168 4.607-6.911 3.075-12.655 7.305-17.228 12.697-4.574 5.39-8.004 11.76-10.29 19.1-2.286 7.345-3.43 15.314-3.43 23.91 0 8.54 1.144 16.498 3.43 23.866zm-83.268-61.524h30.171c2.079 0 4.053.184 5.924.548 1.872.363 3.508 1.014 4.912 1.952 1.405.94 2.508 2.199 3.312 3.788.805 1.591 1.21 3.606 1.21 6.056 0 2.344-.44 4.349-1.325 6.014-.885 1.668-2.066 3.036-3.548 4.104-1.48 1.068-3.182 1.837-5.106 2.305-1.924.47-3.926.701-6.003.701h-29.547zm0 44.374h29.235c2.339 0 4.639.172 6.901.51 2.259.339 4.287 1.055 6.079 2.146 1.793 1.097 3.236 2.644 4.328 4.65 1.09 2.006 1.635 4.675 1.635 8.01 0 2.654-.455 4.958-1.362 6.913-.912 1.952-2.182 3.567-3.822 4.843-1.635 1.276-3.572 2.228-5.806 2.852-2.237.624-4.678.938-7.328.938h-29.86zM986.88 312.8h52.544c6.443 0 12.305-.753 17.579-2.265 5.276-1.51 9.757-3.71 13.448-6.602 3.689-2.89 6.55-6.47 8.577-10.742 2.027-4.272 3.041-9.194 3.041-14.767 0-2.448-.209-4.985-.625-7.617-.416-2.631-1.248-5.182-2.493-7.655-1.25-2.473-3.04-4.776-5.379-6.916-2.34-2.133-5.433-3.93-9.279-5.388 2.496-1.253 4.638-2.645 6.432-4.183 1.794-1.533 3.247-3.253 4.366-5.156 1.117-1.901 1.936-4.007 2.456-6.326.518-2.32.78-4.938.78-7.852 0-2.031-.222-4.168-.663-6.407a27.534 27.534 0 00-2.223-6.601c-1.038-2.162-2.444-4.231-4.209-6.211-1.767-1.98-3.95-3.725-6.548-5.233-2.6-1.512-5.68-2.71-9.24-3.596-3.56-.887-7.677-1.327-12.357-1.327H986.88zm-102.445-95.079h34.926V312.8h23.935v-95.079h35.003v-19.765h-93.864zm-106.886 38.44c0 18.591 4.68 33.229 14.036 43.904 9.358 10.626 22.214 15.94 38.564 15.94 13.214 0 24.05-3.932 32.508-11.8 8.458-7.864 13.714-18.072 15.771-30.624h-23.853c-1.578 5.939-3.56 10.39-5.948 13.36-4.323 5.522-10.603 8.279-18.838 8.279-8.033 0-14.654-3.213-19.868-9.647-5.209-6.433-7.814-16.105-7.814-29.022 0-12.918 2.469-22.907 7.408-29.963 4.938-7.057 11.684-10.588 20.238-10.588 8.402 0 14.739 2.5 19.015 7.503 2.393 2.81 4.356 6.978 5.883 12.5h24.012c-.359-7.188-2.982-14.348-7.866-21.486-8.846-12.706-22.829-19.061-41.958-19.061-14.295 0-26.068 4.739-35.323 14.217-10.645 10.887-15.967 26.382-15.967 46.488zM680.176 312.8h86.848v-20.781h-63.85v-28.986h56.207V243.19h-56.206v-25.468h61.12v-19.765h-84.119zm-44.05 0h23.933V197.956h-23.934v51.639c-1.508.469-3.209.9-5.105 1.289-1.899.39-3.848.72-5.848.977a91.372 91.372 0 01-5.924.586 77.712 77.712 0 01-5.184.196c-3.693 0-6.823-.246-9.396-.741-2.572-.495-4.665-1.422-6.276-2.774-1.612-1.353-2.78-3.218-3.508-5.585-.728-2.371-1.09-5.433-1.09-9.182v-36.405h-23v42.185c0 2.032.08 4.195.234 6.487.157 2.292.597 4.56 1.327 6.796.726 2.239 1.817 4.403 3.274 6.486 1.454 2.085 3.482 3.905 6.08 5.467 2.599 1.563 5.874 2.812 9.823 3.75 3.95.937 8.757 1.408 14.423 1.408.728 0 1.961-.04 3.701-.118 1.743-.078 3.899-.234 6.473-.47 2.571-.232 5.547-.598 8.924-1.092 3.379-.495 7.07-1.16 11.072-1.994zm-114.227-88.986h.312l14.266 45.469h-29.234zm-54.26 88.986h25.26l7.95-23.67h42.331l7.33 23.67h26.038l-40.54-114.844h-27.363zm-98.235 0h23.933v-38.908l11.694-11.952 35.472 50.86h30.326l-49.505-67.812 46.776-47.032h-30.95l-43.813 46.717v-46.717h-23.933V312.8M582.33 92.16c0 18.593 4.68 33.23 14.04 43.905 9.355 10.627 22.21 15.94 38.56 15.94 13.215 0 24.05-3.933 32.507-11.798 8.458-7.864 13.716-18.074 15.774-30.626h-23.856c-1.576 5.938-3.559 10.391-5.948 13.362-4.323 5.518-10.602 8.28-18.838 8.28-8.03 0-14.652-3.216-19.864-9.65-5.21-6.43-7.817-16.104-7.817-29.024 0-12.916 2.47-22.901 7.408-29.958 4.937-7.06 11.685-10.587 20.24-10.587 8.4 0 14.739 2.5 19.016 7.499 2.393 2.813 4.353 6.978 5.881 12.501h24.011c-.36-7.188-2.981-14.35-7.865-21.485-8.846-12.708-22.831-19.064-41.958-19.064-14.294 0-26.068 4.741-35.324 14.218-10.644 10.888-15.966 26.383-15.966 46.487zm-75.937 35.781c-3.848-1.98-7.109-4.726-9.785-8.244-2.677-3.514-4.73-7.678-6.157-12.497-1.431-4.819-2.146-10.093-2.146-15.821 0-5.73.715-11.003 2.146-15.822 1.428-4.817 3.48-8.984 6.157-12.498 2.676-3.518 5.937-6.264 9.785-8.244 3.844-1.978 8.211-2.968 13.096-2.968 4.884 0 9.252.99 13.098 2.968 3.846 1.98 7.106 4.726 9.784 8.244 2.677 3.514 4.716 7.681 6.121 12.498 1.403 4.819 2.103 10.092 2.103 15.822 0 5.728-.7 11.002-2.103 15.821-1.405 4.819-3.444 8.983-6.121 12.497-2.678 3.518-5.938 6.264-9.784 8.244-3.846 1.98-8.214 2.968-13.098 2.968-4.885 0-9.252-.988-13.096-2.968zm-38.589-12.693c2.285 7.37 5.716 13.748 10.29 19.139 4.571 5.392 10.315 9.622 17.229 12.694 6.91 3.072 14.968 4.608 24.166 4.608 8.472 0 16.111-1.536 22.922-4.608 6.808-3.072 12.589-7.302 17.345-12.694 4.755-5.391 8.405-11.768 10.953-19.139 2.546-7.372 3.819-15.328 3.819-23.87 0-8.594-1.273-16.562-3.819-23.906-2.548-7.344-6.198-13.71-10.953-19.103-4.756-5.392-10.537-9.624-17.345-12.694-6.811-3.072-14.45-4.61-22.922-4.61-9.198 0-17.256 1.538-24.166 4.61-6.914 3.07-12.658 7.302-17.23 12.694-4.573 5.392-8.004 11.759-10.289 19.103-2.29 7.344-3.432 15.312-3.432 23.907 0 8.541 1.143 16.497 3.432 23.869zM394.28 53.721h22.688c2.7 0 5.132.327 7.287.976 2.157.652 3.978 1.668 5.46 3.048 1.478 1.382 2.622 3.138 3.428 5.274s1.209 4.714 1.209 7.734c0 5.99-1.547 10.312-4.637 12.97-3.095 2.656-7.343 3.984-12.747 3.984H394.28zm-23.932 95.08h23.932V107.55h26.196c5.924 0 11.225-.909 15.903-2.733 4.677-1.824 8.64-4.363 11.889-7.617 3.247-3.254 5.73-7.136 7.445-11.642 1.714-4.504 2.572-9.438 2.572-14.804 0-5.781-.728-10.937-2.182-15.468-1.458-4.534-3.664-8.388-6.626-11.565-2.964-3.177-6.693-5.597-11.188-7.265-4.497-1.666-9.784-2.5-15.864-2.5h-52.077V148.8M1009.617 142.856c0 .816-.104 1.521-.312 2.123-.206.598-.472 1.106-.797 1.522a4.378 4.378 0 01-1.108 1.012 6.458 6.458 0 01-1.244.611 6.01 6.01 0 01-1.175.299c-.369.052-.673.078-.908.078-.444 0-.86-.06-1.242-.178a2.818 2.818 0 01-1.011-.546 2.505 2.505 0 01-.676-.932c-.163-.378-.243-.825-.243-1.342 0-.623.091-1.143.279-1.556a2.75 2.75 0 01.817-1.056c.364-.291.818-.524 1.366-.702a14.984 14.984 0 011.908-.468l1.661-.31c.637-.119 1.147-.263 1.532-.432.384-.17.768-.362 1.153-.568zm6.276-8.247c0-.857-.13-1.72-.388-2.588-.258-.868-.762-1.653-1.508-2.356-.746-.704-1.79-1.273-3.128-1.71-1.338-.439-3.086-.658-5.244-.658-1.525.018-2.83.195-3.926.535-1.095.34-2.02.773-2.783 1.299-.763.529-1.376 1.109-1.839 1.745a9.314 9.314 0 00-1.089 1.888 8.582 8.582 0 00-.53 1.725c-.098.526-.146.936-.146 1.231h6.276c.059-.457.156-.89.288-1.299.133-.405.348-.764.644-1.066.295-.304.699-.542 1.208-.712.512-.17 1.188-.254 2.03-.254.74 0 1.355.066 1.851.199.495.133.891.321 1.187.567.296.244.507.534.632.866.124.335.19.7.19 1.1 0 .416-.077.746-.222.99a1.733 1.733 0 01-.555.577c-.222.141-.464.24-.721.3a7.264 7.264 0 01-.72.135l-6.145.912c-1.019.146-1.94.43-2.76.854a7.009 7.009 0 00-2.084 1.6 6.995 6.995 0 00-1.322 2.244 8.086 8.086 0 00-.464 2.77c0 1.228.183 2.308.555 3.244.37.933.887 1.71 1.552 2.332a6.623 6.623 0 002.36 1.412c.91.32 1.905.478 2.985.478 1.063 0 1.972-.093 2.728-.28a8.14 8.14 0 001.996-.754 8.043 8.043 0 001.563-1.123c.464-.428.941-.896 1.43-1.399 0 .667.07 1.232.211 1.7.139.466.268.839.388 1.122h6.942v-1.002a1.683 1.683 0 01-.544-.277c-.17-.125-.32-.324-.454-.599-.136-.274-.241-.645-.322-1.11-.083-.468-.122-1.064-.122-1.79zm-52.425 7.112h4.835c.753 0 1.398.047 1.94.134.538.089.976.253 1.306.489.334.237.579.553.734.947.154.392.233.882.233 1.476 0 .312-.048.644-.145 1a2.13 2.13 0 01-.6.977c-.3.299-.731.544-1.286.735-.554.193-1.282.288-2.182.288h-4.835zm-6.277 10.514h13.55c1.272 0 2.42-.18 3.448-.544 1.027-.363 1.899-.876 2.616-1.535a6.737 6.737 0 001.666-2.379c.39-.924.586-1.958.586-3.098 0-1.303-.318-2.427-.953-3.368-.635-.939-1.561-1.627-2.773-2.055.369-.179.728-.395 1.078-.657.344-.259.652-.578.919-.954.265-.38.477-.834.632-1.368.155-.533.233-1.164.233-1.89 0-1.259-.233-2.298-.698-3.123a5.362 5.362 0 00-1.875-1.955c-.784-.481-1.69-.818-2.716-1.012a17.563 17.563 0 00-3.205-.288H957.19zm6.277-19.759h5.01c.666 0 1.22.063 1.663.19.444.126.799.295 1.064.51.267.217.456.473.566.78.112.303.166.632.166.988 0 .43-.054.803-.166 1.121-.11.319-.3.586-.576.8-.275.218-.646.38-1.119.49-.476.112-1.064.168-1.773.168h-4.835zm-36.195 19.759h6.255V133.12h7.32v-5.112h-20.892v5.112h7.317zm-22.041-15.67c-.104-1.213-.337-2.282-.701-3.21a9.16 9.16 0 00-1.374-2.424 8.201 8.201 0 00-1.884-1.722 11.356 11.356 0 00-2.206-1.124c-.77-.288-1.551-.488-2.34-.609a15.151 15.151 0 00-2.298-.179c-1.713 0-3.27.282-4.666.846a9.671 9.671 0 00-3.582 2.478c-.99 1.088-1.757 2.43-2.296 4.022-.538 1.596-.809 3.42-.809 5.478 0 2.06.245 3.891.741 5.491.496 1.6 1.22 2.944 2.174 4.035.954 1.088 2.137 1.913 3.549 2.476 1.412.561 3.044.846 4.89.846 1.42 0 2.669-.182 3.75-.546 1.077-.363 2.019-.828 2.828-1.399a9.124 9.124 0 002.016-1.935c.54-.718.973-1.433 1.296-2.144.325-.71.56-1.385.7-2.024.139-.634.212-1.153.212-1.556h-6.543c0 .403-.085.848-.256 1.335a4.43 4.43 0 01-.789 1.377c-.352.432-.796.79-1.33 1.08-.53.288-1.16.431-1.885.431-1.108 0-1.98-.235-2.616-.71a4.478 4.478 0 01-1.441-1.81 7.92 7.92 0 01-.621-2.424c-.09-.881-.132-1.72-.132-2.523 0-.769.054-1.59.165-2.465a8.31 8.31 0 01.676-2.421 4.894 4.894 0 011.455-1.847c.626-.49 1.465-.735 2.514-.735.682 0 1.263.087 1.743.256.48.171.887.424 1.22.756.332.332.603.743.808 1.222.208.484.37 1.042.49 1.678zm-53.516 1.334c0-1.067.16-1.956.479-2.664.318-.712.718-1.279 1.198-1.703a4.19 4.19 0 011.584-.89 5.833 5.833 0 011.642-.253c.532 0 1.086.084 1.664.254.577.17 1.105.468 1.585.889.481.424.881.99 1.199 1.703.318.708.476 1.597.476 2.664zm16.348 4.178c0-2.222-.193-4.244-.579-6.066-.384-1.823-1.024-3.38-1.917-4.667-.895-1.29-2.073-2.285-3.537-2.99-1.464-.702-3.268-1.057-5.412-1.057-2.026 0-3.758.347-5.202 1.035-1.441.69-2.622 1.613-3.548 2.765-.922 1.156-1.604 2.495-2.038 4.012a17.123 17.123 0 00-.654 4.746c0 2.37.3 4.386.907 6.048.608 1.657 1.44 3.009 2.496 4.054a9.61 9.61 0 003.705 2.288c1.41.482 2.922.724 4.534.724 1.257 0 2.397-.136 3.428-.402a12.167 12.167 0 002.76-1.056 9.566 9.566 0 002.108-1.499c.589-.564 1.08-1.137 1.473-1.723a7.412 7.412 0 00.876-1.733c.192-.57.287-1.077.287-1.521h-6.496a3.25 3.25 0 01-.588 1.189 4.14 4.14 0 01-.966.89 4.65 4.65 0 01-2.528.741c-.858 0-1.59-.11-2.205-.332-.613-.222-1.132-.51-1.553-.868a4.386 4.386 0 01-1.008-1.187 6.661 6.661 0 01-.843-2.503 7.97 7.97 0 01-.068-.888zm-39.319-14.068h-6.277v10.026c-.356.25-.85.476-1.488.677-.633.199-1.493.297-2.57.297a10.21 10.21 0 01-1.886-.153c-.532-.103-.975-.29-1.33-.555a2.356 2.356 0 01-.787-1.069c-.171-.445-.258-1.015-.258-1.71v-7.513h-6.274v8.758c0 1.289.185 2.373.554 3.254a5.1 5.1 0 001.642 2.144c.724.55 1.618.947 2.681 1.191 1.065.245 2.285.368 3.661.368.548 0 1.119-.03 1.719-.092a19.43 19.43 0 003.248-.588c.46-.125.82-.248 1.088-.365v9.556h6.277zm-43.537 14.847c0 .816-.1 1.521-.308 2.123a5.245 5.245 0 01-.799 1.522 4.317 4.317 0 01-1.109 1.012 6.4 6.4 0 01-1.241.611 6.058 6.058 0 01-1.175.299c-.37.052-.673.078-.91.078a4.19 4.19 0 01-1.242-.178c-.385-.118-.72-.3-1.01-.546a2.49 2.49 0 01-.675-.932c-.163-.378-.243-.825-.243-1.342 0-.623.09-1.143.277-1.556.184-.416.458-.77.819-1.056.363-.291.817-.524 1.365-.702a15.048 15.048 0 011.906-.468l1.665-.31c.635-.119 1.145-.263 1.53-.432.385-.17.77-.362 1.15-.568zm6.277-8.247c0-.857-.126-1.72-.388-2.588-.257-.868-.76-1.653-1.508-2.356-.745-.704-1.788-1.273-3.125-1.71-1.337-.439-3.087-.658-5.245-.658-1.524.018-2.831.195-3.926.535-1.094.34-2.022.773-2.784 1.299-.76.529-1.373 1.109-1.84 1.745a9.224 9.224 0 00-1.085 1.888 8.443 8.443 0 00-.535 1.725c-.096.526-.142.936-.142 1.231h6.276c.058-.457.156-.89.288-1.299.133-.405.346-.764.644-1.066.294-.304.697-.542 1.208-.712.51-.17 1.186-.254 2.029-.254.737 0 1.356.066 1.85.199.495.133.891.321 1.189.567.294.244.505.534.63.866.124.335.187.7.187 1.1 0 .416-.072.746-.221.99a1.704 1.704 0 01-.554.577c-.221.141-.461.24-.72.3-.258.061-.5.105-.721.135l-6.141.912c-1.022.146-1.942.43-2.763.854a7.009 7.009 0 00-2.084 1.6 6.94 6.94 0 00-1.319 2.244c-.312.852-.466 1.775-.466 2.77 0 1.228.184 2.308.554 3.244.368.933.886 1.71 1.552 2.332a6.594 6.594 0 002.362 1.412c.909.32 1.904.478 2.984.478 1.064 0 1.972-.093 2.728-.28a8.181 8.181 0 001.996-.754 7.963 7.963 0 001.562-1.123c.464-.428.943-.896 1.431-1.399 0 .667.07 1.232.21 1.7.14.466.269.839.387 1.122h6.942v-1.002a1.725 1.725 0 01-.542-.277c-.172-.125-.321-.324-.456-.599-.132-.274-.238-.645-.321-1.11-.08-.468-.123-1.064-.123-1.79zm-59.365 17.626h6.275v-7.67l2.528-2.553 7.097 10.223h8.181l-10.4-14.156 9.982-10.07h-8.339l-9.05 9.202v-9.202h-6.274v24.226M977.816 98.679c0 .814-.104 1.52-.312 2.121a5.22 5.22 0 01-.797 1.524 4.378 4.378 0 01-1.108 1.012 6.403 6.403 0 01-1.243.61 6.018 6.018 0 01-1.175.3 6.843 6.843 0 01-.91.078c-.444 0-.858-.06-1.243-.18a2.793 2.793 0 01-1.008-.544 2.51 2.51 0 01-.676-.933c-.163-.378-.245-.824-.245-1.343 0-.625.093-1.141.278-1.555.186-.417.459-.77.819-1.057.363-.29.819-.524 1.365-.7a14.412 14.412 0 011.908-.465l1.664-.314c.635-.118 1.143-.264 1.528-.436.386-.169.77-.358 1.155-.564zm6.275-8.248c0-.858-.13-1.722-.388-2.587-.258-.868-.762-1.653-1.507-2.356-.748-.704-1.79-1.273-3.128-1.712-1.337-.435-3.085-.655-5.245-.655-1.523.015-2.831.194-3.924.534-1.095.338-2.023.773-2.784 1.3-.762.528-1.375 1.108-1.84 1.742a9.215 9.215 0 00-1.087 1.89c-.26.622-.437 1.2-.532 1.724-.097.525-.144.937-.144 1.232h6.276c.059-.459.153-.891.288-1.3.132-.404.348-.764.643-1.066.296-.304.698-.541 1.208-.713.51-.17 1.186-.255 2.029-.255.739 0 1.356.067 1.85.2.498.134.894.323 1.189.568.296.243.505.535.632.867.124.335.189.699.189 1.099 0 .417-.075.745-.221.99-.15.246-.334.435-.555.578a2.276 2.276 0 01-.721.298 6.6 6.6 0 01-.72.134l-6.144.914c-1.022.146-1.94.431-2.762.855a7.005 7.005 0 00-2.084 1.599 6.948 6.948 0 00-1.32 2.244 8.028 8.028 0 00-.466 2.769c0 1.228.185 2.31.554 3.245.371.93.887 1.71 1.552 2.332a6.608 6.608 0 002.363 1.411c.908.321 1.903.477 2.983.477 1.064 0 1.974-.092 2.728-.277a8.067 8.067 0 001.996-.756 7.864 7.864 0 001.564-1.123c.465-.426.941-.894 1.43-1.397 0 .667.07 1.23.21 1.7.14.465.269.837.388 1.121h6.94v-1.002a1.712 1.712 0 01-.542-.278c-.169-.124-.32-.322-.453-.597-.135-.275-.241-.647-.323-1.11-.081-.469-.122-1.065-.122-1.791zm-64.602 17.626h5.9V88.568h.111l4.524 19.49h5.721l4.548-19.49h.088v19.49h5.899V83.83h-9.159l-3.992 17.578h-.11l-4.08-17.578h-9.45zM886.691 93.72c0-1.065.16-1.956.476-2.667.318-.708.718-1.276 1.2-1.698a4.166 4.166 0 011.584-.891 5.835 5.835 0 011.64-.255c.533 0 1.088.086 1.664.255a4.171 4.171 0 011.585.89c.481.423.881.991 1.199 1.7.317.71.477 1.6.477 2.666zm16.345 4.18c0-2.223-.192-4.245-.577-6.068-.384-1.821-1.024-3.377-1.918-4.667-.896-1.289-2.074-2.284-3.537-2.988-1.464-.704-3.268-1.056-5.413-1.056-2.024 0-3.759.343-5.2 1.034-1.442.689-2.624 1.613-3.547 2.764-.927 1.157-1.604 2.496-2.041 4.014-.436 1.52-.654 3.1-.654 4.744 0 2.371.303 4.387.908 6.047.606 1.657 1.439 3.01 2.495 4.052a9.607 9.607 0 003.703 2.292c1.413.48 2.924.721 4.537.721 1.256 0 2.397-.134 3.425-.401a12.341 12.341 0 002.762-1.052 9.55 9.55 0 002.106-1.503 10.312 10.312 0 001.476-1.722c.392-.584.683-1.16.876-1.732.192-.572.288-1.079.288-1.524h-6.497c-.12.445-.315.84-.59 1.192a4.069 4.069 0 01-.963.886c-.37.246-.774.43-1.21.555-.437.13-.874.192-1.32.192-.857 0-1.593-.112-2.205-.335-.613-.221-1.13-.509-1.553-.869a4.498 4.498 0 01-1.008-1.185 6.417 6.417 0 01-.576-1.3 6.813 6.813 0 01-.267-1.203 7.936 7.936 0 01-.067-.888zm-50.807 10.157h6.254V88.943h7.317V83.83h-20.89v5.112h7.32zm-22.044-15.67c-.104-1.212-.337-2.284-.698-3.21-.364-.926-.82-1.734-1.376-2.422a8.156 8.156 0 00-1.886-1.723c-.7-.46-1.436-.835-2.205-1.123-.77-.288-1.55-.49-2.34-.612a15.84 15.84 0 00-2.296-.176c-1.713 0-3.27.283-4.667.843a9.66 9.66 0 00-3.582 2.479c-.992 1.088-1.755 2.43-2.295 4.021-.54 1.593-.812 3.421-.812 5.479 0 2.06.25 3.89.745 5.492.496 1.598 1.22 2.944 2.174 4.034.953 1.088 2.136 1.912 3.548 2.475 1.412.565 3.041.845 4.889.845 1.42 0 2.668-.18 3.748-.544 1.079-.364 2.023-.829 2.83-1.398a9.103 9.103 0 002.017-1.935c.54-.719.972-1.435 1.297-2.144.324-.71.557-1.387.697-2.025.142-.634.212-1.156.212-1.555h-6.542c0 .399-.087.844-.256 1.333a4.476 4.476 0 01-2.117 2.457c-.533.29-1.162.431-1.886.431-1.107 0-1.98-.233-2.616-.71a4.474 4.474 0 01-1.441-1.808 7.893 7.893 0 01-.622-2.424 25.096 25.096 0 01-.133-2.524c0-.768.056-1.591.167-2.466.11-.872.336-1.68.676-2.424a4.897 4.897 0 011.452-1.844c.63-.489 1.469-.734 2.517-.734.681 0 1.259.088 1.741.257.482.17.888.421 1.22.756.334.333.602.743.81 1.224.206.481.37 1.039.488 1.675zm-60.72 15.67h6.852l8.539-14.6h.11v14.6h6.253V83.831h-6.584l-8.806 14.937h-.088V83.831h-6.276zm-16.809-15.67c-.104-1.212-.337-2.284-.7-3.21-.361-.926-.82-1.734-1.375-2.422a8.156 8.156 0 00-1.885-1.723 11.157 11.157 0 00-2.205-1.123c-.77-.288-1.55-.49-2.34-.612a15.837 15.837 0 00-2.295-.176c-1.717 0-3.272.283-4.67.843a9.682 9.682 0 00-3.582 2.479c-.99 1.088-1.755 2.43-2.295 4.021-.54 1.593-.809 3.421-.809 5.479 0 2.06.247 3.89.743 5.492.496 1.598 1.22 2.944 2.173 4.034.953 1.088 2.136 1.912 3.55 2.475 1.41.565 3.04.845 4.89.845 1.419 0 2.667-.18 3.748-.544 1.077-.364 2.02-.829 2.827-1.398a9.103 9.103 0 002.017-1.935 11.8 11.8 0 001.297-2.144c.326-.71.559-1.387.699-2.025.14-.634.212-1.156.212-1.555h-6.543c0 .399-.085.844-.254 1.333a4.489 4.489 0 01-2.12 2.458c-.531.289-1.159.43-1.883.43-1.11 0-1.983-.233-2.617-.71a4.452 4.452 0 01-1.442-1.808 7.893 7.893 0 01-.621-2.424 24.724 24.724 0 01-.135-2.524c0-.768.056-1.591.167-2.466.112-.872.337-1.68.676-2.424a4.913 4.913 0 011.453-1.844c.63-.489 1.468-.734 2.519-.734.679 0 1.259.088 1.74.257.48.17.887.421 1.22.756.332.333.601.743.808 1.224a7.86 7.86 0 01.49 1.675h6.542M1100.165 50.5h-5.233c-.505 0-1.008-.016-1.508-.044a3.685 3.685 0 01-1.365-.332 2.412 2.412 0 01-.998-.89c-.258-.4-.389-.98-.389-1.733 0-.772.13-1.368.39-1.792.257-.42.598-.732 1.02-.933a3.812 3.812 0 011.429-.343 27.81 27.81 0 011.597-.046h5.057zm6.298-10.845h-12.995c-.268 0-.636.008-1.11.02-.474.016-.983.056-1.53.124a15.34 15.34 0 00-1.687.31c-.574.142-1.1.346-1.573.612-.43.223-.85.51-1.264.868a5.842 5.842 0 00-1.11 1.29 6.98 6.98 0 00-.797 1.764c-.206.674-.313 1.441-.313 2.301 0 .193.01.421.025.688.015.267.051.553.11.855.06.305.144.617.254.936.111.318.263.617.454.9.268.428.552.786.856 1.077.301.29.606.525.909.71a6.213 6.213 0 001.608.701c-.696.209-1.25.437-1.663.688-.414.253-.74.554-.977.9-.236.35-.407.761-.51 1.236a17.005 17.005 0 00-.266 1.689l-.31 2.91c-.03.327-.063.635-.1.934a8.975 8.975 0 01-.155.879 6.546 6.546 0 01-.742 1.832h6.628a5.648 5.648 0 00.434-1.666c.053-.549.092-.993.121-1.333l.09-2.335c.03-.816.151-1.458.366-1.934a2.32 2.32 0 01.943-1.078c.414-.245.942-.4 1.585-.468a23.426 23.426 0 012.317-.097h4.104v8.91h6.298zm-46.06 14.845c0 .816-.104 1.523-.312 2.124a5.266 5.266 0 01-.796 1.521 4.34 4.34 0 01-1.111 1.012 6.564 6.564 0 01-1.241.612 6.085 6.085 0 01-1.176.298c-.37.053-.674.078-.91.078a4.21 4.21 0 01-1.24-.177 2.799 2.799 0 01-1.01-.547 2.46 2.46 0 01-.678-.93c-.162-.38-.244-.827-.244-1.344 0-.623.094-1.143.279-1.556.184-.416.456-.768.82-1.056.361-.291.816-.523 1.364-.702a14.984 14.984 0 011.908-.468l1.663-.31c.636-.118 1.144-.262 1.529-.432.385-.17.77-.36 1.155-.567zm6.274-8.247a8.98 8.98 0 00-.388-2.588c-.258-.868-.761-1.652-1.508-2.356-.748-.702-1.789-1.273-3.126-1.709-1.338-.44-3.087-.657-5.246-.657-1.521.016-2.83.193-3.925.533-1.093.34-2.021.775-2.784 1.3-.76.528-1.373 1.108-1.84 1.744a9.05 9.05 0 00-1.085 1.89 8.472 8.472 0 00-.534 1.723c-.098.526-.142.936-.142 1.232h6.273c.06-.457.156-.892.29-1.3.133-.405.349-.762.643-1.066.295-.303.699-.542 1.21-.711.509-.17 1.185-.255 2.028-.255.74 0 1.357.066 1.85.199.496.133.894.323 1.188.568.296.243.504.533.631.865.125.335.19.702.19 1.102 0 .414-.075.745-.22.988-.151.245-.334.436-.555.577a2.294 2.294 0 01-.722.301c-.26.06-.5.104-.721.134l-6.145.912c-1.019.146-1.939.432-2.759.854a7.014 7.014 0 00-2.085 1.602 6.917 6.917 0 00-1.318 2.242 7.997 7.997 0 00-.468 2.77c0 1.229.184 2.308.555 3.244.37.934.888 1.71 1.552 2.333a6.644 6.644 0 002.361 1.412c.911.319 1.906.479 2.984.479 1.063 0 1.975-.095 2.727-.28.755-.187 1.421-.438 1.996-.756.577-.319 1.1-.691 1.564-1.122.465-.429.943-.897 1.43-1.398 0 .666.07 1.23.213 1.698.138.466.268.84.388 1.122h6.94v-1.002a1.72 1.72 0 01-.544-.276c-.17-.126-.322-.325-.454-.6-.133-.273-.24-.645-.321-1.11-.081-.468-.123-1.064-.123-1.788zM1007.31 63.88h6.275V56.21l2.53-2.555 7.097 10.223h8.182l-10.4-14.155 9.979-10.07h-8.337l-9.051 9.2v-9.2h-6.275zm-16.985-15.67c-.104-1.213-.337-2.282-.699-3.21a9.165 9.165 0 00-1.376-2.424 8.144 8.144 0 00-1.885-1.72 11.235 11.235 0 00-2.205-1.124c-.77-.288-1.55-.49-2.34-.61a15.117 15.117 0 00-2.295-.178c-1.717 0-3.273.28-4.67.845a9.656 9.656 0 00-3.582 2.479c-.99 1.088-1.755 2.429-2.296 4.021-.539 1.595-.807 3.42-.807 5.477 0 2.06.247 3.891.743 5.491.495 1.6 1.219 2.944 2.172 4.035.955 1.088 2.136 1.914 3.55 2.476 1.41.562 3.04.848 4.89.848 1.419 0 2.668-.184 3.748-.547 1.077-.364 2.02-.83 2.827-1.399a9.056 9.056 0 002.018-1.936c.54-.718.971-1.432 1.296-2.144.327-.71.559-1.385.7-2.024.138-.634.211-1.152.211-1.554h-6.543c0 .402-.086.846-.254 1.333-.172.49-.434.95-.788 1.377-.354.432-.798.79-1.331 1.08-.532.288-1.161.432-1.884.432-1.11 0-1.981-.236-2.617-.712a4.478 4.478 0 01-1.442-1.809 7.921 7.921 0 01-.622-2.424c-.088-.88-.134-1.72-.134-2.523 0-.768.056-1.589.168-2.465.111-.876.336-1.681.676-2.421a4.86 4.86 0 011.452-1.846c.63-.489 1.467-.736 2.519-.736.679 0 1.259.087 1.74.258.48.169.888.422 1.22.754.33.332.6.743.808 1.222a7.97 7.97 0 01.49 1.678zm-60.72 15.67h6.852l8.537-14.6h.111v14.6h6.255V39.655h-6.587l-8.804 14.934h-.09V39.655h-6.274zm13.948-34.359c.016.501-.023.941-.11 1.31-.089.371-.251.682-.487.935-.238.252-.559.44-.966.566-.406.125-.913.188-1.52.188-.62 0-1.126-.076-1.518-.232a2.269 2.269 0 01-.931-.647c-.23-.272-.39-.59-.477-.955a5.885 5.885 0 01-.156-1.165h-4.546c0 1.168.187 2.17.566 2.999a5.27 5.27 0 001.585 2.034c.681.526 1.484.912 2.417 1.156.932.246 1.952.366 3.06.366 1.095 0 2.107-.12 3.039-.366.932-.244 1.733-.63 2.407-1.156.672-.525 1.2-1.202 1.585-2.034.385-.828.577-1.831.577-2.999zm-53.956 34.359h6.853l8.536-14.6h.112v14.6h6.255V39.655h-6.588l-8.803 14.934h-.089V39.655h-6.276zm-16.808-15.67c-.105-1.213-.337-2.282-.701-3.21-.362-.926-.819-1.734-1.374-2.424a8.198 8.198 0 00-1.885-1.72 11.209 11.209 0 00-2.207-1.124c-.769-.288-1.549-.49-2.34-.61a15.117 15.117 0 00-2.294-.178c-1.715 0-3.272.28-4.668.845a9.608 9.608 0 00-3.582 2.479c-.992 1.088-1.756 2.429-2.296 4.021-.538 1.595-.809 3.42-.809 5.477 0 2.06.247 3.891.743 5.491.496 1.6 1.22 2.944 2.173 4.035.953 1.088 2.137 1.914 3.548 2.476 1.412.562 3.043.848 4.89.848 1.42 0 2.669-.184 3.747-.547 1.079-.364 2.022-.83 2.828-1.399.806-.573 1.48-1.216 2.019-1.936.54-.718.972-1.432 1.297-2.144.323-.71.559-1.385.699-2.024.141-.634.212-1.152.212-1.554h-6.544c0 .402-.085.846-.255 1.333a4.493 4.493 0 01-2.117 2.457c-.533.288-1.161.432-1.885.432-1.108 0-1.983-.236-2.616-.712a4.47 4.47 0 01-1.443-1.809 7.883 7.883 0 01-.621-2.424 24.99 24.99 0 01-.134-2.523c0-.768.056-1.589.167-2.465.11-.876.336-1.681.676-2.421a4.863 4.863 0 011.453-1.846c.63-.489 1.468-.736 2.518-.736.68 0 1.26.087 1.74.258.48.169.888.422 1.22.754.333.332.602.743.81 1.222.206.484.37 1.044.487 1.678zm-37.525 0c-.103-1.213-.335-2.282-.698-3.21a9.236 9.236 0 00-1.374-2.424 8.198 8.198 0 00-1.886-1.72 11.283 11.283 0 00-4.546-1.734 15.117 15.117 0 00-2.295-.178c-1.715 0-3.272.28-4.668.845a9.634 9.634 0 00-3.583 2.479c-.99 1.088-1.756 2.429-2.296 4.021-.538 1.595-.808 3.42-.808 5.477 0 2.06.247 3.891.743 5.491.495 1.6 1.22 2.944 2.173 4.035.951 1.088 2.138 1.914 3.548 2.476 1.412.562 3.043.848 4.891.848 1.419 0 2.668-.184 3.747-.547 1.078-.364 2.022-.83 2.828-1.399a9.056 9.056 0 002.018-1.936c.54-.718.971-1.432 1.298-2.144.324-.71.556-1.385.698-2.024.142-.634.21-1.152.21-1.554h-6.542c0 .402-.085.846-.254 1.333a4.493 4.493 0 01-2.117 2.457c-.534.288-1.162.432-1.886.432-1.11 0-1.983-.236-2.616-.712a4.481 4.481 0 01-1.443-1.809 7.844 7.844 0 01-.62-2.424 24.62 24.62 0 01-.134-2.523c0-.768.054-1.589.165-2.465a8.27 8.27 0 01.677-2.421 4.86 4.86 0 011.452-1.846c.631-.489 1.47-.736 2.519-.736.677 0 1.259.087 1.74.258.481.169.888.422 1.22.754.333.332.603.743.81 1.222.206.484.369 1.044.487 1.678zm-55.364.835c.201-.897.529-1.697.988-2.401a5.272 5.272 0 011.796-1.699c.737-.43 1.649-.647 2.728-.647 1.122 0 2.058.212 2.804.636A5.017 5.017 0 01790 46.6c.442.69.756 1.485.943 2.39.184.904.276 1.83.276 2.776 0 .966-.092 1.894-.276 2.791-.187.896-.501 1.688-.943 2.379a5.017 5.017 0 01-1.786 1.665c-.746.424-1.682.633-2.804.633-1.079 0-1.991-.214-2.728-.644a5.247 5.247 0 01-1.796-1.698 7.292 7.292 0 01-.988-2.402 12.384 12.384 0 01-.299-2.724c0-.917.097-1.825.299-2.721zm-5.987 7.88c.57 1.57 1.388 2.927 2.461 4.067 1.072 1.14 2.368 2.028 3.892 2.666 1.523.638 3.238.958 5.146.958 1.937 0 3.669-.32 5.2-.958 1.528-.638 2.824-1.526 3.88-2.666 1.057-1.14 1.866-2.498 2.428-4.067.564-1.57.844-3.29.844-5.159 0-1.864-.28-3.584-.844-5.153-.562-1.572-1.371-2.925-2.428-4.059-1.056-1.132-2.352-2.017-3.88-2.656-1.531-.634-3.263-.954-5.2-.954-1.908 0-3.623.32-5.146.954-1.524.639-2.82 1.524-3.892 2.656-1.073 1.134-1.892 2.487-2.461 4.059-.57 1.57-.855 3.29-.855 5.153 0 1.87.284 3.588.855 5.159zm-34.43-20.093h6.454c.768 0 1.46.093 2.073.277.614.188 1.13.476 1.552.868.423.392.746.893.978 1.5.228.607.342 1.341.342 2.2 0 1.704-.44 2.933-1.32 3.69-.88.754-2.088 1.134-3.625 1.134h-6.453zm-6.807 27.048h6.808V52.144h7.452c1.685 0 3.192-.259 4.524-.779 1.33-.517 2.456-1.238 3.381-2.165a9.356 9.356 0 002.119-3.312c.488-1.281.73-2.685.73-4.212 0-1.643-.208-3.11-.62-4.401-.414-1.29-1.044-2.384-1.885-3.29-.843-.901-1.904-1.592-3.183-2.065-1.278-.473-2.782-.71-4.513-.71h-14.813v32.669"/>
    <path fill="#fff" d="M1213.96 328.786H351.333V183h862.627zM18.173 18.213H333.16v310.573H18.173zm333.16 0H695.88v146.574H351.333zm362.72 146.574V18.213h499.907v146.574zM0 0v347h1232.133V0H0"/>
    <path fill="#e32124" d="M291.333 172.013c-5.946 24.507-17.96 61.534-27.506 84.867-11.827 28.84-13.68 29.52-43.68 31.8-25.094 1.893-63.947 1.893-89.04 0-31.014-2.36-32.24-3.907-43.667-31.8-9.56-23.32-21.56-60.36-27.506-84.867-7.36-30.28-6.267-31.933 16.667-51.44 19.185-16.32 50.626-39.2 72.039-52.453 26.467-16.373 28.373-15.827 53.973 0 21.427 13.253 52.854 36.133 72.04 52.453 23.72 20.174 23.8 22.16 16.68 51.44zm-273.16-153.8v310.573H333.16V18.213H18.173"/>
    <path fill="#e32124" d="M265.573 164.947c-5.653 23.28-17.186 58.88-26.28 81.053-5.226 12.773-6.253 14.267-21.146 15.386-23.84 1.814-61.2 1.814-85.04 0-6.867-.52-10.747-.906-13.6-2.893-2.867-2-4.707-5.573-7.547-12.493-9.08-22.173-20.627-57.773-26.28-81.067-3.253-13.413-3.306-15.226 8.08-24.906 18.227-15.507 48.453-37.507 68.8-50.094 11.733-7.253 13.44-7.853 26.147 0 20.346 12.587 50.56 34.587 68.8 50.094 10.506 8.946 11.6 10.386 8.066 24.92"/>
</svg>