<svg width="96" height="22" fill="none" xmlns="http://www.w3.org/2000/svg">
  <path fill-rule="evenodd" clip-rule="evenodd" d="m38.804 11.975-4.516 3.328.787-3.319h-2.271l-2.25 9.285h2.502l.673-3.057 1.231-.771 2.11 3.828h2.838l-2.948-5.393 2.877-1.963h3.457l-1.65 7.356h2.373l1.733-7.356h3.437l.46-1.938H38.805ZM51.8 19.423H51l.561-2.596h.809c2.114-.031 1.274 2.61-.57 2.596Zm.218-4.58c.125-.57.509-2.907.509-2.907h-2.408l-2.126 9.333h3.441c5.014-.101 6.959-6.8.584-6.426Zm-19.904-3.777 1.977-7.522h2.877l1.535 3.932-2.994 3.568 2.709-.004 6.559-7.823-1.696 7.85h2.197l1.357-5.132.69 5.131h2.462l3.156-5.329-1.236 5.33h2.364l2.304-9.5h-3.41L49.382 7.55l-.766-5.984H43.41l-3.062 3.616-1.605-3.616H31.99l-2.177 9.5h2.3ZM71.93 5.1h-3.982l.834-3.533h-2.496l-2.182 9.473h2.502l.854-3.89h3.976l-.737 3.89h2.324l2.162-9.473h-2.328L71.93 5.1Zm-14.304 6.837-2.212 9.333h2.64l2.173-9.333h-2.601Zm5.947-4.832.394-1.906-4.913-.002.442-1.856h5.76l.373-1.774h-8.333l-2.258 9.5h8.334l.515-2.22-5.7-.012.413-1.73h4.973Zm-40.25 3.962.794-2.788h2.922c2.966-.199 4.913-3.55 3.164-5.874-.585-.478-1.25-.85-2.202-.838H23.23l-2.233 9.5h2.326Zm4.715 6.842-1.297-.031 1.765-1.855-.468 1.887Zm1.126-5.924L20.93 21.27h2.589s1.168-1.248 1.33-1.403h2.7l-.35 1.403h2.58l2.232-9.294-2.848.01Zm-10.322 4.752.614-2.72h2.31c1.742.086.84 2.72-.52 2.72h-2.404Zm-.868-8.422h-3.292l4.18-4.604-.888 4.604Zm-1.902 8.432H13.57c-1.254-.176-1.072-2.895 1.053-2.742h1.993l-.543 2.742Zm6.176-4.702h-2.4C20.005 11.369 22.47 0 22.47 0h-3.422L3.607 16.968l1.138-4.92H2.354L0 21.27h2.664l4.343-4.783-1.04 4.783h2.415s2.203-8.422 2.231-8.552a238.06 238.06 0 0 0 2.223-2.362h4.562l-.237 1.692h-2.827c-1.401.022-3.111.968-3.829 2.36a4.46 4.46 0 0 0-.282 1.348c-.021.596.086 1.245.428 1.764.293.493 1.432 1.154 2.697 1.154h2.275C15.5 19.22 14.78 22 14.78 22h2.737s.755-2.955.873-3.343h2.56c4.062.144 6.383-5.992 1.298-6.613Zm2.246-5.72.614-2.72h2.308c1.743.087.84 2.72-.518 2.72h-2.404Zm63.045 2.51h-.8l.563-2.594h.806c2.619.07 1.05 2.673-.57 2.594Zm.296-4.641c.122-.57.576-2.619.576-2.619l-2.406-.008-2.166 9.473h3.326c5.071-.096 7.053-7.157.67-6.846ZM85.42 1.606h-9.496l-.462 1.938h3.425l-1.801 7.495h2.612l1.828-7.495h3.433l.46-1.938Zm8.047-.04-2.24 9.473h2.638L96 1.566h-2.534Z" fill="#DA2429"/>
</svg>
