<?xml version="1.0" encoding="UTF-8" standalone="no"?>
<svg xmlns="http://www.w3.org/2000/svg" width="306.624" height="119.257" viewBox="0 0 306.624 119.257">
    <defs>
        <clipPath id="a" clipPathUnits="userSpaceOnUse">
            <path d="M0 283.46h283.46V0H0z"/>
        </clipPath>
    </defs>
    <path fill="#faa41a" d="M276.47 89.257H30V74.958h246.47z"/>
    <g clip-path="url(#a)" transform="matrix(1.33333 0 0 -1.33333 -35.661 248.602)">
        <path fill="#faa41a" d="M225.46 148.083h2.632c1.476 0 2.336.67 2.336 1.853 0 1.18-.86 1.88-2.336 1.88h-2.632zm-3.787-2.927v13.398h3.787v-3.919h3.222c3.356 0 5.532-1.853 5.532-4.726 0-1.37-.457-2.498-1.397-3.41-.94-.886-2.255-1.343-3.948-1.343zM197.18 145.156l5.772 7.143-5.182 6.255h4.27l4.08-5.047v5.047h3.734v-5.047l4.054 5.047h4.269l-5.182-6.255 5.8-7.143h-4.511l-4.43 5.72v-5.72h-3.733v5.72l-4.458-5.72zM191.383 153.238c-.08 1.477-1.13 2.685-2.82 2.685-1.718 0-2.872-1.1-3.06-2.685zm-7.491-6.499c-1.424 1.29-2.15 3.008-2.15 5.13 0 1.986.646 3.652 1.935 4.994 1.289 1.37 2.98 2.041 5.048 2.041 1.959 0 3.49-.699 4.644-2.069 1.156-1.368 1.745-3.033 1.745-5.02v-.994h-9.611c.402-1.826 2.12-2.792 4.484-2.792 1.503 0 2.926.403 4.295 1.181v-3.034c-1.208-.913-2.9-1.37-5.101-1.37-2.094 0-3.867.645-5.29 1.933M169.165 147.683l2.622 5.649 2.532-5.65h-.091zm8.77 0h-.01l-4.915 10.96h-2.366l-5.087-10.96h-2.284v-3.161h16.863v3.16zM154.476 147.731a3.943 3.943 0 100 7.886 3.943 3.943 0 000-7.886m0 10.992a7.057 7.057 0 01-7.05-7.049c0-3.886 3.163-7.048 7.05-7.048s7.049 3.162 7.049 7.048a7.057 7.057 0 01-7.05 7.049M122.852 147.731a3.943 3.943 0 100 7.886 3.943 3.943 0 000-7.886m0 10.992c-3.886 0-7.048-3.162-7.048-7.049a7.056 7.056 0 017.048-7.048c3.887 0 7.05 3.162 7.05 7.048a7.057 7.057 0 01-7.05 7.049M97.421 145.156v13.398h3.732l3.893-4.993 3.92 4.993h3.733v-13.398h-3.57v8.27l-3.33-4.161h-1.504l-3.303 4.16v-8.27zM83.897 146.74c-1.423 1.316-2.148 3.035-2.148 5.155 0 2.123.725 3.814 2.148 5.075 1.45 1.29 3.168 1.934 5.182 1.934 1.477 0 2.793-.295 3.974-.887v-3.222c-1.155.537-2.308.806-3.41.806-1.181 0-2.175-.35-2.98-1.048-.779-.67-1.182-1.584-1.182-2.684 0-1.101.403-2.014 1.208-2.712.806-.698 1.8-1.048 2.954-1.048 1.369 0 2.578.297 3.625.914V145.8c-1.262-.672-2.658-.994-4.242-.994-1.988 0-3.706.644-5.129 1.933M71.96 147.731a3.944 3.944 0 10.001 7.888 3.944 3.944 0 000-7.888m0 10.992a7.057 7.057 0 01-7.05-7.049c0-3.886 3.163-7.048 7.05-7.048a7.056 7.056 0 017.048 7.048c0 3.887-3.162 7.049-7.048 7.049M53.206 155.897h4.082c1.852 0 2.952.832 2.952 2.335 0 1.504-1.1 2.336-2.952 2.336h-4.082zm-3.867-10.741v18.796h8.216c2.014 0 3.625-.537 4.78-1.584 1.182-1.047 1.772-2.39 1.772-4.081 0-1.691-.59-3.062-1.772-4.11-1.155-1.046-2.766-1.583-4.78-1.583h-4.349v-7.438zM134.39 144.522l4.09 8.81 3.95-8.81h3.617l-6.333 14.122h-2.387l-6.555-14.122z"/>
    </g>
</svg>