<svg width="88" height="35" fill="none" xmlns="http://www.w3.org/2000/svg">
  <path d="M48.16 33.807v.695H40.4v-.695l1.953-.178V20.14s-.588-.199-.985-.463c-.616-.41-.877-.86-.877-.86v-1.105c.236.17.492.322.761.463a7.093 7.093 0 0 0 3.02.794c.083.004.166.009.252.009.249 0 .493-.013.729-.042.33-.041.65-.108.951-.203V33.63l1.957.178ZM15.311 0v14.55c0 6.436-2.536 9.606-7.988 9.606-2.6 0-4.121-1.648-4.121-3.423 0-1.174.665-2.632 1.775-3.297l.476.444c-1.078.823-1.269 1.87-1.269 2.82 0 1.459 1.015 2.695 3.17 2.695 3.805 0 4.122-3.994 4.122-7.481v-2.631c-.793 1.807-2.758 3.138-4.978 3.138C3.043 16.421 0 14.107 0 8.686 0 3.328 3.233.222 8.052.222c.95 0 2.25.349 3.297.92L15.31 0Zm-3.93 2.283c-.857-.825-1.934-1.142-2.917-1.142-3.392 0-4.026 3.868-4.026 7.482 0 4.786.951 6.784 2.917 6.784 2.504 0 4.026-2.727 4.026-4.217V2.283ZM24.408.317l-.19 3.899h.127c.729-2.314 2.631-4.121 4.818-4.121 1.205 0 1.776.856 1.776 1.743 0 .634-.317 1.332-.92 1.68-.475-.38-1.078-.506-1.648-.506-1.997 0-3.963 1.236-3.963 2.472v9.542l2.853.19v.73h-8.907v-.73l2.091-.158V1.522l-2.567-.127v-.73l6.53-.348ZM40.132.066c-4.758 0-7.988 3.202-7.988 8.145 0 4.683 2.9 7.869 7.223 8.047a6.571 6.571 0 0 1-.526-1.105c-1.865-.674-2.354-2.83-2.354-5.8v-.12c1.337.306 3.012.335 4.588.017.14-.03.277-.058.414-.091 2.445-.592 4.538-2.048 4.538-4.625 0-2.726-2.06-4.468-5.895-4.468ZM36.488 8.41c.008-3.844.773-7.364 3.392-7.393 1.68 0 2.408 1.237 2.374 3.107-.029 3.409-2.734 4.931-5.766 4.286Zm25.537 4.41c-1.18 1.65-3.182 2.556-5.188 2.556-3.045 0-3.773-2.411-3.773-6.023v-.12c1.518.343 3.488.331 5.237-.136a7.72 7.72 0 0 0 .832-.265c1.957-.728 3.47-2.106 3.47-4.298 0-2.726-2.06-4.473-5.894-4.473-4.754 0-7.989 3.203-7.989 8.15 0 4.82 3.074 8.05 7.608 8.05 4.091 0 6.023-1.666 6.483-2.655l-.786-.786ZM56.456 1.013c1.68 0 2.408 1.237 2.375 3.107-.03 3.412-2.735 4.935-5.767 4.29.008-3.848.774-7.364 3.392-7.397Zm31.54 13.734c.07 1.531-.799 3.029-2.383 3.53-3.103.976-7.339-.642-8.203-4.071-.6-2.37-.27-7.074-.27-9.23 0-.095 0-.186-.003-.277-.034-2.197-.513-3.306-2.218-3.306-2.312 0-4.343 3.298-4.343 4.754v8.878l2.378.19v.728h-8.493v-.728l2.09-.19V1.518l-2.599-.125V.727l6.5-.38-.162 3.23h.318C71.783 1.424 73.844.253 76.061.253c3.14 0 5.072 1.332 5.072 4.881 0 3.124-.07 5.445-.166 8.307.009.224.021.447.033.67.038.666.298 1.361.592 1.953.82 1.638 3.032 2.18 4.472 1.163.72-.51 1.072-1.382 1.055-2.35l.877-.129Zm-51.1 6.42-1.955-.572v-.782h5.054v.782l-1.835.572-5.115 13.328h-1.203l-3.67-8.695-3.43 8.695h-1.955l-5.807-13.75-1.264-.15v-.782h6.86v.782l-1.986.24 4.272 10.44 2.648-7.009-1.474-3.52-1.234-.15v-.783h6.8v.782l-1.986.24 3.88 9.568 3.4-9.236Zm20.72 10.018c0-3.46-7.551-2.557-7.551-7.25 0-2.588 1.895-4.453 6.107-4.453 2.406 0 4.362 1.083 4.362 2.858 0 1.173-.902 1.895-1.925 1.895a2.21 2.21 0 0 1-1.113-.3c.12-.422.21-.933.21-1.414 0-1.174-.451-2.287-1.896-2.287-1.774 0-2.436 1.173-2.436 2.828 0 3.941 7.581 2.227 7.581 7.431 0 2.677-2.527 4.332-6.077 4.332-2.437 0-5.265-.571-5.265-2.497 0-1.083.812-1.925 2.257-1.955.15 3.069 1.775 3.7 3.219 3.7 1.203 0 2.527-.662 2.527-2.888Zm18.267.193c-1.1 1.663-3.06 2.577-5.03 2.577-2.888 0-3.578-2.287-3.578-5.717v-.116c3.371.774 9.055-.318 9.055-4.46 0-2.585-1.956-4.24-5.597-4.24-4.51 0-7.579 3.037-7.579 7.732 0 4.571 2.917 7.641 7.22 7.641 4.148 0 5.956-1.803 6.225-2.701l-.716-.716Zm-5.39-11.054c1.597 0 2.288 1.175 2.259 2.95-.033 3.235-2.602 4.683-5.477 4.066.008-3.648.736-6.987 3.218-7.016Z" fill="#000"/>
  <path d="M46.406 16.96c-1.373 1.11-4.199.484-5.305-.867-1.133-1.383-1.73-3.895-.32-5.008 1.32-1.043 2.883-.089 3.934 1.24 1.066 1.348 4.004 2.714 1.691 4.635Z" fill="#609C26"/>
</svg>
