<?xml version="1.0" encoding="UTF-8" standalone="no"?>
<svg xml:space="preserve" width="647.744" height="358.457" xmlns="http://www.w3.org/2000/svg">
  <g fill="#231f20">
    <path d="M561.744 272.457H86V86h379.364v51.459L480.967 86h80.777ZM70 288.457h507.744V70H70z"/>
    <path d="M204.11 246.938h58.588V227.41h-37.105v-40.036h25.49v-19.53h-25.49v-38.082h37.105v-19.53H204.11ZM280.235 227.034h-7.83v20.099h27.686v-.184l.248.186 7.832-117.374h14.746v117.177h21.874V110.233h-56.735ZM464.97 166.672l-7.811 30.076v-86.515h-19.14v136.705h22.069l17.965-62.69 8.788-33.59v96.28h19.335V110.233h-23.63ZM543.998 228.355l-21.483 13.333v6.033h21.483ZM543.998 111.017h-21.483v121.104l21.483-13.333ZM160.948 227.8H137.44l8.012-98.039h15.495Zm21.872-117.567h-57.483L116.36 227.8H104.118v34.83h20.896v-15.691h45.894v15.69h21.288V227.8h-9.376zM378.944 203.718l5.14-73.92h13.722l4.792 73.982Zm-14.377-93.287-9.032 136.704h20.608l1.607-24.801h26.021l1.567 24.801h21.512l-8.639-136.704Z"/>
  </g>
</svg>
