<?xml version="1.0" encoding="UTF-8" standalone="no"?>
<svg xml:space="preserve" width="374.909" height="406.87" xmlns="http://www.w3.org/2000/svg">
  <g fill="#282d64">
    <path d="m193.394 71.44-8.23 8.93-.65-9.67-25.89-20.71-15.16 34.39-22.56-7.02-14.42 7.02v36.61c-40.34 34.43-64.11 78.79-49.94 102.55 9.91 16.6 30.44 24.06 55.54 23.85 1.64-.14 3.33-.34 5.13-.65.63-.11 1.25-.23 1.86-.36.13-.06.23-.1.23-.1 1.31-.38 3.3-.98 5.75-2.12 1.05-.49 1.95-.98 2.69-1.4-7.2.53-11.82.67-14.6.57-21.73 1.1-40.41-3.73-51.76-15.82-20.07-21.21 6.77-67.3 45.12-96.52l.37 33.26h14.05v-78l23.3 6.29-.37 71.72h14.42V62.56l26.62 22.19v58.34h8.51V78.84h21.08v64.25h4.07V81.06c9.92-2.27 19.85-2.34 29.77.81l22-4.13-.74-3.7c-25.1-6.44-50.61-5.08-76.19-2.6z"/>
    <path d="m280.844 95.99 14.04 8.06c.58 5.6.69 12.82-.84 21-3.35 17.96-12.68 30.25-17.95 36.2h-17.32c4.7-3.85 20.63-17.87 23.76-41.07 1.34-10-.13-18.48-1.69-24.19z" fill-rule="evenodd" clip-rule="evenodd"/>
  </g>
  <g fill="#95172d">
    <path d="m273.634 65.89-1.11 14.98-33.47 6.29 31.8 2.03-5.55 17.2 13.31-14.24 12.57 5.92-7.03-11.65 14.98-7.95-17.57 2.22z" fill-rule="evenodd" clip-rule="evenodd"/>
    <path d="M354.514 92.11c-59.53 0-87.02-72.11-87.02-72.11h-160.08s-27.49 72.11-87.02 72.11c0 0-16.69 244.95 167.05 294.76 183.76-49.81 167.07-294.76 167.07-294.76ZM187.454 380.8C16.424 334.44 31.964 99.79 31.964 99.79c55.41 0 81-74.4 81-74.4h149s25.59 74.4 81 74.4c-.01 0 15.53 234.65-155.51 281.01z"/>
    <path d="M161.094 174.95v16.35h3.45v-16.35h5.31v21.53h-22.82v-16.79l5.31-5.18v16.8h3.45v-16.35h5.3zm10.19 5.18 5.31-5.18h11.99l-5.31 5.18h-1.1v16.35h-5.31v-16.35zm35.13-5.18v21.53h-5.31v-2.91h-9.54l5.37-5.27h4.17v-5.7l-14.76 14.37v-7.59l14.76-14.43zm8.86 5.18v11.17h5.79c.41 0 .74-.13.97-.4.23-.27.35-.63.35-1.1 0-.44-.12-.8-.35-1.07-.23-.27-.56-.4-.97-.4h-4.63v-5.18h5.68c1.58 0 2.9.61 3.97 1.81 1.07 1.2 1.6 2.8 1.6 4.78 0 1.78-.55 3.35-1.64 4.7-1.1 1.35-2.4 2.03-3.91 2.03h-12.18v-16.35l5.31-5.18h16l-5.31 5.18h-10.68zm-139.56 36.3c-.3-.78-.97-1.44-2.01-1.96-1.04-.53-2.34-.79-3.93-.79h-2.75l4.98-4.86c2.54 0 4.62.96 6.23 2.88 1.61 1.92 2.41 4.33 2.41 7.24 0 2.82-1 5.2-3.01 7.15-2 1.95-4.5 2.92-7.5 2.92h-3.11v-4.86h2.75c1.52 0 2.85-.32 3.99-.95.98-.55 1.62-1.18 1.95-1.91h-8.69v-4.85h8.69zm20.86-7.61h6.82l-9.32 9.6 4.12 4.06v6.98l-7.75-7.49-2.25 2.21v4.83h-4.98v-15.79l4.98-4.86v8.74zm20.99 2.42c1.72 1.87 2.58 4.43 2.58 7.66 0 3.2-.88 5.76-2.63 7.67-1.65 1.8-3.78 2.7-6.39 2.7-2.59 0-4.71-.9-6.36-2.7-1.73-1.89-2.6-4.45-2.6-7.67 0-3.22.87-5.77 2.6-7.66 1.65-1.8 3.77-2.7 6.36-2.7 2.64 0 4.78.9 6.44 2.7zm-3.34 3.82c-.71-1.11-1.74-1.66-3.11-1.66-1.38 0-2.42.55-3.11 1.64-.59.95-.88 2.24-.88 3.87 0 1.62.3 2.91.91 3.87.69 1.09 1.72 1.64 3.08 1.64 1.4 0 2.44-.55 3.13-1.64.61-.95.91-2.24.91-3.87.01-1.58-.31-2.87-.93-3.85zm19.83 1.01c.22-.27.33-.61.33-1.01 0-.42-.11-.75-.33-1.01-.22-.25-.52-.38-.91-.38h-5.46V229h-4.98v-15.33l4.98-4.86h6.39c1.52 0 2.77.58 3.78 1.73 1 1.15 1.5 2.66 1.5 4.51 0 .89-.2 1.67-.59 2.33-.4.66-.92 1.19-1.58 1.57.62.2 1.14.66 1.55 1.38.41.72.62 1.51.62 2.39 0 1.87-.51 3.39-1.53 4.54s-2.27 1.73-3.75 1.73h-5.28v-4.86h4.34c.39 0 .69-.14.91-.41.22-.27.33-.61.33-1.01 0-.42-.11-.75-.33-1.01-.22-.25-.52-.38-.91-.38h-4.34v-4.86h4.34c.4.02.7-.11.92-.39zm23.16-4.83c1.72 1.87 2.58 4.43 2.58 7.66 0 3.2-.88 5.76-2.63 7.67-1.65 1.8-3.78 2.7-6.39 2.7-2.59 0-4.71-.9-6.36-2.7-1.73-1.89-2.6-4.45-2.6-7.67 0-3.22.87-5.77 2.6-7.66 1.65-1.8 3.77-2.7 6.36-2.7 2.64 0 4.79.9 6.44 2.7zm-3.33 3.82c-.71-1.11-1.74-1.66-3.11-1.66-1.38 0-2.42.55-3.11 1.64-.59.95-.88 2.24-.88 3.87 0 1.62.3 2.91.91 3.87.69 1.09 1.72 1.64 3.08 1.64 1.4 0 2.44-.55 3.13-1.64.61-.95.91-2.24.91-3.87 0-1.58-.31-2.87-.93-3.85zm21.54 13.94v-13.01l-13.81 13.44v-7.12l13.81-13.5h4.98V229zm23.06-17.76c1.72 1.87 2.58 4.43 2.58 7.66 0 3.2-.88 5.76-2.63 7.67-1.65 1.8-3.78 2.7-6.39 2.7-2.59 0-4.71-.9-6.36-2.7-1.73-1.89-2.6-4.45-2.6-7.67 0-3.22.87-5.77 2.6-7.66 1.65-1.8 3.77-2.7 6.36-2.7 2.64 0 4.79.9 6.44 2.7zm-3.33 3.82c-.71-1.11-1.74-1.66-3.11-1.66-1.38 0-2.42.55-3.11 1.64-.59.95-.88 2.24-.88 3.87 0 1.62.3 2.91.91 3.87.69 1.09 1.72 1.64 3.08 1.64 1.4 0 2.44-.55 3.13-1.64.61-.95.91-2.24.91-3.87 0-1.58-.31-2.87-.93-3.85zm19.87 1.42v-7.67h4.98V229h-4.98v-7.66h-6.31V229h-4.98v-15.8l4.98-4.85v8.14h6.31zm6.31-2.81 4.98-4.86h11.24l-4.97 4.86h-1.04V229h-4.98v-15.33zm15.29 15.33v-15.33l4.97-4.86h12.83l-4.98 4.86h-7.86v2.81h7.86v4.86h-7.86v2.81h7.86v4.86h-12.82zm29.12-6.74c-1.38 1.25-2.94 1.88-4.67 1.88h-1.06v-4.86h1.06c.71 0 1.32-.26 1.83-.78s.77-1.2.77-2.03c0-.82-.26-1.49-.78-2.02s-1.13-.79-1.82-.79h-2.22v15.33h-4.98v-15.33l4.98-4.86h2.25c1.73 0 3.29.64 4.67 1.91 1.6 1.47 2.4 3.39 2.4 5.76-.01 2.39-.82 4.32-2.43 5.79zm19.9-11.02c1.72 1.87 2.58 4.43 2.58 7.66 0 3.2-.88 5.76-2.63 7.67-1.65 1.8-3.78 2.7-6.39 2.7-2.59 0-4.71-.9-6.36-2.7-1.73-1.89-2.6-4.45-2.6-7.67 0-3.22.87-5.77 2.6-7.66 1.65-1.8 3.77-2.7 6.36-2.7 2.64 0 4.79.9 6.44 2.7zm-3.33 3.82c-.71-1.11-1.74-1.66-3.11-1.66-1.38 0-2.42.55-3.11 1.64-.59.95-.88 2.24-.88 3.87 0 1.62.3 2.91.91 3.87.69 1.09 1.72 1.64 3.08 1.64 1.4 0 2.44-.55 3.13-1.64.61-.95.91-2.24.91-3.87 0-1.58-.31-2.87-.93-3.85zm19.82 1.01c.22-.27.33-.61.33-1.01 0-.42-.11-.75-.33-1.01-.22-.25-.52-.38-.91-.38h-5.46V229h-4.98v-15.33l4.98-4.86h6.39c1.52 0 2.77.58 3.78 1.73 1 1.15 1.5 2.66 1.5 4.51 0 .89-.2 1.67-.59 2.33-.4.66-.92 1.19-1.58 1.57.62.2 1.14.66 1.55 1.38.41.72.62 1.51.62 2.39 0 1.87-.51 3.39-1.53 4.54s-2.27 1.73-3.75 1.73h-5.28v-4.86h4.34c.39 0 .69-.14.91-.41.22-.27.33-.61.33-1.01 0-.42-.11-.75-.33-1.01-.22-.25-.52-.38-.91-.38h-4.34v-4.86h4.34c.4.02.7-.11.92-.39zm-137.2 32.14v7.65l8.11-7.65v22.09h-5.58v-8.18l-8.97 8.63v-8.63l-8.84 8.63v-7.61zm16.38 5.74v16.35h-5.31v-16.35l5.31-5.18h11.4l-5.28 5.18zm8.97 0 5.31-5.18h11.99l-5.31 5.18h-1.1v16.35h-5.31v-16.35z"/>
    <path d="m206.154 263.28 5.58-5.53-5.5-5.85 3.74-3.64 5.71 5.68 5.33-5.18h7.92l-22.79 22.02v-7.5zm-73.52 43.81h-1.48c-3.18 0-5.84-1.03-7.99-3.1-2.15-2.07-3.22-4.62-3.22-7.67 0-3.03 1.08-5.58 3.23-7.65 2.16-2.08 4.81-3.11 7.98-3.11h6.79l-5.31 5.18h-1.11c-1.78 0-3.27.53-4.47 1.6-1.2 1.07-1.8 2.4-1.8 3.99 0 1.57.61 2.9 1.82 3.97 1.21 1.08 2.7 1.61 4.46 1.61h1.11v5.18z"/>
    <path d="m135.924 290.74 5.31-5.18h11.99l-5.31 5.18h-1.1v16.35h-5.31v-16.35zm35.13-5.18v21.53h-5.31v-2.91h-9.54l5.37-5.27h4.17v-5.7l-14.76 14.36v-7.59l14.76-14.43h5.31zm15.49 8.18v-8.18h5.31v21.53h-5.31v-8.18h-6.74v8.18h-5.31v-16.86l5.31-5.17v8.68zm22.47-8.18h7.27l-9.94 10.24 4.39 4.33v7.45l-8.27-7.99-2.4 2.36v5.15h-5.31v-16.85l5.31-5.19v9.32zm11.53-.44v9.46l9.19-9.02h4.55v21.53h-5.31v-12.98l-13.74 13.38V290.3Zm28.77 8.62v-8.18h5.31v21.53h-5.31v-8.18h-6.74v8.18h-5.31v-16.86l5.31-5.17v8.68z"/>
  </g>
</svg>
